<mxfile host="Electron" modified="2023-06-18T09:53:47.373Z" agent="Mozilla/5.0 (Windows NT 10.0; Win64; x64) AppleWebKit/537.36 (KHTML, like Gecko) draw.io/21.2.1 Chrome/112.0.5615.87 Electron/24.1.2 Safari/537.36" etag="VwKsfpPkQL6HSslbq7Yd" version="21.2.1" type="device">
  <diagram name="Page-1" id="KXDN--MPK7HC9uskFJhs">
    <mxGraphModel dx="1695" dy="768" grid="0" gridSize="10" guides="1" tooltips="1" connect="1" arrows="1" fold="1" page="0" pageScale="1" pageWidth="850" pageHeight="1100" math="0" shadow="0">
      <root>
        <mxCell id="0" />
        <mxCell id="1" parent="0" />
        <mxCell id="s43rUlDpMTknoYBjIofl-1" value="&lt;b&gt;&lt;font style=&quot;font-size: 15px;&quot;&gt;Author&lt;/font&gt;&lt;/b&gt;" style="rounded=0;whiteSpace=wrap;html=1;" vertex="1" parent="1">
          <mxGeometry x="10" y="100" width="100" height="50" as="geometry" />
        </mxCell>
        <mxCell id="s43rUlDpMTknoYBjIofl-2" value="&lt;b&gt;&lt;font style=&quot;font-size: 15px;&quot;&gt;Member&lt;/font&gt;&lt;/b&gt;" style="rounded=0;whiteSpace=wrap;html=1;" vertex="1" parent="1">
          <mxGeometry x="320" y="400" width="160" height="50" as="geometry" />
        </mxCell>
        <mxCell id="s43rUlDpMTknoYBjIofl-3" value="&lt;b&gt;&lt;font style=&quot;font-size: 15px;&quot;&gt;Category&lt;/font&gt;&lt;/b&gt;" style="rounded=0;whiteSpace=wrap;html=1;" vertex="1" parent="1">
          <mxGeometry x="660" y="100" width="120" height="50" as="geometry" />
        </mxCell>
        <mxCell id="s43rUlDpMTknoYBjIofl-4" value="&lt;b&gt;&lt;font style=&quot;font-size: 15px;&quot;&gt;Book&lt;/font&gt;&lt;/b&gt;" style="rounded=0;whiteSpace=wrap;html=1;" vertex="1" parent="1">
          <mxGeometry x="320" y="100" width="160" height="50" as="geometry" />
        </mxCell>
        <mxCell id="s43rUlDpMTknoYBjIofl-6" value="author_id" style="ellipse;whiteSpace=wrap;html=1;" vertex="1" parent="1">
          <mxGeometry x="-90" y="60" width="70" height="30" as="geometry" />
        </mxCell>
        <mxCell id="s43rUlDpMTknoYBjIofl-7" value="name" style="ellipse;whiteSpace=wrap;html=1;" vertex="1" parent="1">
          <mxGeometry x="-90" y="150" width="70" height="30" as="geometry" />
        </mxCell>
        <mxCell id="s43rUlDpMTknoYBjIofl-8" value="book_id" style="ellipse;whiteSpace=wrap;html=1;" vertex="1" parent="1">
          <mxGeometry x="210" y="40" width="80" height="30" as="geometry" />
        </mxCell>
        <mxCell id="s43rUlDpMTknoYBjIofl-9" value="title" style="ellipse;whiteSpace=wrap;html=1;" vertex="1" parent="1">
          <mxGeometry x="305" y="40" width="80" height="30" as="geometry" />
        </mxCell>
        <mxCell id="s43rUlDpMTknoYBjIofl-10" value="publication_date" style="ellipse;whiteSpace=wrap;html=1;" vertex="1" parent="1">
          <mxGeometry x="400" y="40" width="100" height="30" as="geometry" />
        </mxCell>
        <mxCell id="s43rUlDpMTknoYBjIofl-11" value="amount" style="ellipse;whiteSpace=wrap;html=1;" vertex="1" parent="1">
          <mxGeometry x="505" y="40" width="100" height="30" as="geometry" />
        </mxCell>
        <mxCell id="s43rUlDpMTknoYBjIofl-12" value="category_id" style="ellipse;whiteSpace=wrap;html=1;" vertex="1" parent="1">
          <mxGeometry x="810" y="60" width="100" height="30" as="geometry" />
        </mxCell>
        <mxCell id="s43rUlDpMTknoYBjIofl-13" value="name" style="ellipse;whiteSpace=wrap;html=1;" vertex="1" parent="1">
          <mxGeometry x="810" y="160" width="100" height="30" as="geometry" />
        </mxCell>
        <mxCell id="s43rUlDpMTknoYBjIofl-14" value="member_id" style="ellipse;whiteSpace=wrap;html=1;" vertex="1" parent="1">
          <mxGeometry x="190" y="510" width="100" height="30" as="geometry" />
        </mxCell>
        <mxCell id="s43rUlDpMTknoYBjIofl-15" value="name" style="ellipse;whiteSpace=wrap;html=1;" vertex="1" parent="1">
          <mxGeometry x="300" y="510" width="100" height="30" as="geometry" />
        </mxCell>
        <mxCell id="s43rUlDpMTknoYBjIofl-16" value="phone_number" style="ellipse;whiteSpace=wrap;html=1;" vertex="1" parent="1">
          <mxGeometry x="410" y="510" width="100" height="30" as="geometry" />
        </mxCell>
        <mxCell id="s43rUlDpMTknoYBjIofl-17" value="address" style="ellipse;whiteSpace=wrap;html=1;" vertex="1" parent="1">
          <mxGeometry x="520" y="510" width="100" height="30" as="geometry" />
        </mxCell>
        <mxCell id="s43rUlDpMTknoYBjIofl-18" value="" style="endArrow=classic;html=1;rounded=0;exitX=0;exitY=0.5;exitDx=0;exitDy=0;entryX=0.5;entryY=1;entryDx=0;entryDy=0;" edge="1" parent="1" source="s43rUlDpMTknoYBjIofl-1" target="s43rUlDpMTknoYBjIofl-6">
          <mxGeometry width="50" height="50" relative="1" as="geometry">
            <mxPoint x="350" y="260" as="sourcePoint" />
            <mxPoint x="400" y="210" as="targetPoint" />
          </mxGeometry>
        </mxCell>
        <mxCell id="s43rUlDpMTknoYBjIofl-19" value="" style="endArrow=classic;html=1;rounded=0;exitX=0;exitY=0.5;exitDx=0;exitDy=0;entryX=0.5;entryY=0;entryDx=0;entryDy=0;" edge="1" parent="1" source="s43rUlDpMTknoYBjIofl-1" target="s43rUlDpMTknoYBjIofl-7">
          <mxGeometry width="50" height="50" relative="1" as="geometry">
            <mxPoint x="10" y="100" as="sourcePoint" />
            <mxPoint x="-10" y="85" as="targetPoint" />
          </mxGeometry>
        </mxCell>
        <mxCell id="s43rUlDpMTknoYBjIofl-20" value="" style="endArrow=classic;html=1;rounded=0;exitX=0.5;exitY=0;exitDx=0;exitDy=0;entryX=0.5;entryY=1;entryDx=0;entryDy=0;" edge="1" parent="1" source="s43rUlDpMTknoYBjIofl-4" target="s43rUlDpMTknoYBjIofl-8">
          <mxGeometry width="50" height="50" relative="1" as="geometry">
            <mxPoint x="90" y="110" as="sourcePoint" />
            <mxPoint x="70" y="95" as="targetPoint" />
          </mxGeometry>
        </mxCell>
        <mxCell id="s43rUlDpMTknoYBjIofl-21" value="" style="endArrow=classic;html=1;rounded=0;exitX=0.5;exitY=0;exitDx=0;exitDy=0;entryX=0.5;entryY=1;entryDx=0;entryDy=0;" edge="1" parent="1" source="s43rUlDpMTknoYBjIofl-4" target="s43rUlDpMTknoYBjIofl-9">
          <mxGeometry width="50" height="50" relative="1" as="geometry">
            <mxPoint x="100" y="120" as="sourcePoint" />
            <mxPoint x="80" y="105" as="targetPoint" />
          </mxGeometry>
        </mxCell>
        <mxCell id="s43rUlDpMTknoYBjIofl-22" value="" style="endArrow=classic;html=1;rounded=0;exitX=0.5;exitY=0;exitDx=0;exitDy=0;entryX=0.5;entryY=1;entryDx=0;entryDy=0;" edge="1" parent="1" source="s43rUlDpMTknoYBjIofl-4" target="s43rUlDpMTknoYBjIofl-10">
          <mxGeometry width="50" height="50" relative="1" as="geometry">
            <mxPoint x="110" y="130" as="sourcePoint" />
            <mxPoint x="90" y="115" as="targetPoint" />
          </mxGeometry>
        </mxCell>
        <mxCell id="s43rUlDpMTknoYBjIofl-23" value="" style="endArrow=classic;html=1;rounded=0;exitX=0.5;exitY=0;exitDx=0;exitDy=0;entryX=0.5;entryY=1;entryDx=0;entryDy=0;" edge="1" parent="1" source="s43rUlDpMTknoYBjIofl-4" target="s43rUlDpMTknoYBjIofl-11">
          <mxGeometry width="50" height="50" relative="1" as="geometry">
            <mxPoint x="120" y="140" as="sourcePoint" />
            <mxPoint x="100" y="125" as="targetPoint" />
          </mxGeometry>
        </mxCell>
        <mxCell id="s43rUlDpMTknoYBjIofl-24" value="" style="endArrow=classic;html=1;rounded=0;exitX=1;exitY=0.5;exitDx=0;exitDy=0;entryX=0.5;entryY=1;entryDx=0;entryDy=0;" edge="1" parent="1" source="s43rUlDpMTknoYBjIofl-3" target="s43rUlDpMTknoYBjIofl-12">
          <mxGeometry width="50" height="50" relative="1" as="geometry">
            <mxPoint x="170" y="150" as="sourcePoint" />
            <mxPoint x="150" y="135" as="targetPoint" />
          </mxGeometry>
        </mxCell>
        <mxCell id="s43rUlDpMTknoYBjIofl-25" value="" style="endArrow=classic;html=1;rounded=0;exitX=1;exitY=0.5;exitDx=0;exitDy=0;entryX=0.5;entryY=0;entryDx=0;entryDy=0;" edge="1" parent="1" source="s43rUlDpMTknoYBjIofl-3" target="s43rUlDpMTknoYBjIofl-13">
          <mxGeometry width="50" height="50" relative="1" as="geometry">
            <mxPoint x="180" y="160" as="sourcePoint" />
            <mxPoint x="160" y="145" as="targetPoint" />
          </mxGeometry>
        </mxCell>
        <mxCell id="s43rUlDpMTknoYBjIofl-26" value="" style="endArrow=classic;html=1;rounded=0;exitX=0.5;exitY=1;exitDx=0;exitDy=0;entryX=0.5;entryY=0;entryDx=0;entryDy=0;" edge="1" parent="1" source="s43rUlDpMTknoYBjIofl-2" target="s43rUlDpMTknoYBjIofl-14">
          <mxGeometry width="50" height="50" relative="1" as="geometry">
            <mxPoint x="155" y="230" as="sourcePoint" />
            <mxPoint x="135" y="215" as="targetPoint" />
          </mxGeometry>
        </mxCell>
        <mxCell id="s43rUlDpMTknoYBjIofl-27" value="" style="endArrow=classic;html=1;rounded=0;exitX=0.5;exitY=1;exitDx=0;exitDy=0;entryX=0.5;entryY=0;entryDx=0;entryDy=0;" edge="1" parent="1" source="s43rUlDpMTknoYBjIofl-2" target="s43rUlDpMTknoYBjIofl-15">
          <mxGeometry width="50" height="50" relative="1" as="geometry">
            <mxPoint x="165" y="240" as="sourcePoint" />
            <mxPoint x="195" y="360" as="targetPoint" />
          </mxGeometry>
        </mxCell>
        <mxCell id="s43rUlDpMTknoYBjIofl-28" value="" style="endArrow=classic;html=1;rounded=0;exitX=0.5;exitY=1;exitDx=0;exitDy=0;entryX=0.5;entryY=0;entryDx=0;entryDy=0;" edge="1" parent="1" source="s43rUlDpMTknoYBjIofl-2" target="s43rUlDpMTknoYBjIofl-16">
          <mxGeometry width="50" height="50" relative="1" as="geometry">
            <mxPoint x="175" y="250" as="sourcePoint" />
            <mxPoint x="155" y="235" as="targetPoint" />
          </mxGeometry>
        </mxCell>
        <mxCell id="s43rUlDpMTknoYBjIofl-29" value="" style="endArrow=classic;html=1;rounded=0;exitX=0.5;exitY=1;exitDx=0;exitDy=0;entryX=0.5;entryY=0;entryDx=0;entryDy=0;" edge="1" parent="1" source="s43rUlDpMTknoYBjIofl-2" target="s43rUlDpMTknoYBjIofl-17">
          <mxGeometry width="50" height="50" relative="1" as="geometry">
            <mxPoint x="185" y="260" as="sourcePoint" />
            <mxPoint x="165" y="245" as="targetPoint" />
          </mxGeometry>
        </mxCell>
        <mxCell id="s43rUlDpMTknoYBjIofl-30" value="&lt;i&gt;&lt;font style=&quot;font-size: 10px;&quot;&gt;Thuộc&lt;/font&gt;&lt;/i&gt;" style="rhombus;whiteSpace=wrap;html=1;" vertex="1" parent="1">
          <mxGeometry x="180" y="97.5" width="60" height="55" as="geometry" />
        </mxCell>
        <mxCell id="s43rUlDpMTknoYBjIofl-31" value="&lt;i&gt;&lt;font style=&quot;font-size: 10px;&quot;&gt;Thuộc&lt;/font&gt;&lt;/i&gt;" style="rhombus;whiteSpace=wrap;html=1;" vertex="1" parent="1">
          <mxGeometry x="545" y="97.5" width="60" height="55" as="geometry" />
        </mxCell>
        <mxCell id="s43rUlDpMTknoYBjIofl-32" value="" style="endArrow=classic;html=1;rounded=0;exitX=1;exitY=0.5;exitDx=0;exitDy=0;entryX=0;entryY=0.5;entryDx=0;entryDy=0;" edge="1" parent="1" source="s43rUlDpMTknoYBjIofl-1" target="s43rUlDpMTknoYBjIofl-30">
          <mxGeometry width="50" height="50" relative="1" as="geometry">
            <mxPoint x="390" y="270" as="sourcePoint" />
            <mxPoint x="440" y="220" as="targetPoint" />
          </mxGeometry>
        </mxCell>
        <mxCell id="s43rUlDpMTknoYBjIofl-33" value="" style="endArrow=classic;html=1;rounded=0;exitX=0;exitY=0.5;exitDx=0;exitDy=0;entryX=1;entryY=0.5;entryDx=0;entryDy=0;" edge="1" parent="1" source="s43rUlDpMTknoYBjIofl-4" target="s43rUlDpMTknoYBjIofl-30">
          <mxGeometry width="50" height="50" relative="1" as="geometry">
            <mxPoint x="390" y="270" as="sourcePoint" />
            <mxPoint x="440" y="220" as="targetPoint" />
          </mxGeometry>
        </mxCell>
        <mxCell id="s43rUlDpMTknoYBjIofl-34" value="" style="endArrow=classic;html=1;rounded=0;exitX=1;exitY=0.5;exitDx=0;exitDy=0;entryX=0;entryY=0.5;entryDx=0;entryDy=0;" edge="1" parent="1" source="s43rUlDpMTknoYBjIofl-4" target="s43rUlDpMTknoYBjIofl-31">
          <mxGeometry width="50" height="50" relative="1" as="geometry">
            <mxPoint x="340" y="135" as="sourcePoint" />
            <mxPoint x="260" y="135" as="targetPoint" />
          </mxGeometry>
        </mxCell>
        <mxCell id="s43rUlDpMTknoYBjIofl-35" value="" style="endArrow=classic;html=1;rounded=0;exitX=0;exitY=0.5;exitDx=0;exitDy=0;entryX=1;entryY=0.5;entryDx=0;entryDy=0;" edge="1" parent="1" source="s43rUlDpMTknoYBjIofl-3" target="s43rUlDpMTknoYBjIofl-31">
          <mxGeometry width="50" height="50" relative="1" as="geometry">
            <mxPoint x="350" y="145" as="sourcePoint" />
            <mxPoint x="585" y="190" as="targetPoint" />
          </mxGeometry>
        </mxCell>
        <mxCell id="s43rUlDpMTknoYBjIofl-36" value="&lt;i&gt;&lt;font style=&quot;font-size: 10px;&quot;&gt;Review&lt;/font&gt;&lt;/i&gt;" style="rhombus;whiteSpace=wrap;html=1;" vertex="1" parent="1">
          <mxGeometry x="225" y="250" width="60" height="55" as="geometry" />
        </mxCell>
        <mxCell id="s43rUlDpMTknoYBjIofl-37" value="&lt;i&gt;&lt;font style=&quot;font-size: 10px;&quot;&gt;Mượn&lt;/font&gt;&lt;/i&gt;" style="rhombus;whiteSpace=wrap;html=1;" vertex="1" parent="1">
          <mxGeometry x="420" y="250" width="60" height="55" as="geometry" />
        </mxCell>
        <mxCell id="s43rUlDpMTknoYBjIofl-38" value="&lt;i&gt;&lt;font style=&quot;font-size: 10px;&quot;&gt;Đặt&lt;/font&gt;&lt;/i&gt;" style="rhombus;whiteSpace=wrap;html=1;" vertex="1" parent="1">
          <mxGeometry x="320" y="250" width="60" height="55" as="geometry" />
        </mxCell>
        <mxCell id="s43rUlDpMTknoYBjIofl-39" value="&lt;i&gt;&lt;font style=&quot;font-size: 10px;&quot;&gt;Thích&lt;/font&gt;&lt;/i&gt;" style="rhombus;whiteSpace=wrap;html=1;" vertex="1" parent="1">
          <mxGeometry x="520" y="250" width="60" height="55" as="geometry" />
        </mxCell>
        <mxCell id="s43rUlDpMTknoYBjIofl-40" value="" style="endArrow=classic;html=1;rounded=0;exitX=0.5;exitY=1;exitDx=0;exitDy=0;entryX=0.5;entryY=0;entryDx=0;entryDy=0;" edge="1" parent="1" source="s43rUlDpMTknoYBjIofl-4" target="s43rUlDpMTknoYBjIofl-37">
          <mxGeometry width="50" height="50" relative="1" as="geometry">
            <mxPoint x="670" y="135" as="sourcePoint" />
            <mxPoint x="615" y="135" as="targetPoint" />
          </mxGeometry>
        </mxCell>
        <mxCell id="s43rUlDpMTknoYBjIofl-41" value="" style="endArrow=classic;html=1;rounded=0;exitX=0.5;exitY=1;exitDx=0;exitDy=0;entryX=0.5;entryY=0;entryDx=0;entryDy=0;" edge="1" parent="1" source="s43rUlDpMTknoYBjIofl-4" target="s43rUlDpMTknoYBjIofl-38">
          <mxGeometry width="50" height="50" relative="1" as="geometry">
            <mxPoint x="680" y="145" as="sourcePoint" />
            <mxPoint x="625" y="145" as="targetPoint" />
          </mxGeometry>
        </mxCell>
        <mxCell id="s43rUlDpMTknoYBjIofl-42" value="" style="endArrow=classic;html=1;rounded=0;exitX=0.5;exitY=1;exitDx=0;exitDy=0;entryX=0.5;entryY=0;entryDx=0;entryDy=0;" edge="1" parent="1" source="s43rUlDpMTknoYBjIofl-4" target="s43rUlDpMTknoYBjIofl-36">
          <mxGeometry width="50" height="50" relative="1" as="geometry">
            <mxPoint x="690" y="155" as="sourcePoint" />
            <mxPoint x="260" y="240" as="targetPoint" />
          </mxGeometry>
        </mxCell>
        <mxCell id="s43rUlDpMTknoYBjIofl-43" value="" style="endArrow=classic;html=1;rounded=0;exitX=0.5;exitY=1;exitDx=0;exitDy=0;entryX=0.5;entryY=0;entryDx=0;entryDy=0;" edge="1" parent="1" source="s43rUlDpMTknoYBjIofl-4" target="s43rUlDpMTknoYBjIofl-39">
          <mxGeometry width="50" height="50" relative="1" as="geometry">
            <mxPoint x="700" y="165" as="sourcePoint" />
            <mxPoint x="645" y="165" as="targetPoint" />
          </mxGeometry>
        </mxCell>
        <mxCell id="s43rUlDpMTknoYBjIofl-44" value="" style="endArrow=classic;html=1;rounded=0;exitX=0.5;exitY=0;exitDx=0;exitDy=0;entryX=0.5;entryY=1;entryDx=0;entryDy=0;" edge="1" parent="1" source="s43rUlDpMTknoYBjIofl-2" target="s43rUlDpMTknoYBjIofl-38">
          <mxGeometry width="50" height="50" relative="1" as="geometry">
            <mxPoint x="710" y="175" as="sourcePoint" />
            <mxPoint x="655" y="175" as="targetPoint" />
          </mxGeometry>
        </mxCell>
        <mxCell id="s43rUlDpMTknoYBjIofl-45" value="" style="endArrow=classic;html=1;rounded=0;entryX=0.5;entryY=1;entryDx=0;entryDy=0;" edge="1" parent="1" target="s43rUlDpMTknoYBjIofl-37">
          <mxGeometry width="50" height="50" relative="1" as="geometry">
            <mxPoint x="400" y="400" as="sourcePoint" />
            <mxPoint x="665" y="185" as="targetPoint" />
          </mxGeometry>
        </mxCell>
        <mxCell id="s43rUlDpMTknoYBjIofl-46" value="" style="endArrow=classic;html=1;rounded=0;exitX=0.5;exitY=0;exitDx=0;exitDy=0;entryX=0.5;entryY=1;entryDx=0;entryDy=0;" edge="1" parent="1" source="s43rUlDpMTknoYBjIofl-2" target="s43rUlDpMTknoYBjIofl-36">
          <mxGeometry width="50" height="50" relative="1" as="geometry">
            <mxPoint x="730" y="195" as="sourcePoint" />
            <mxPoint x="675" y="195" as="targetPoint" />
          </mxGeometry>
        </mxCell>
        <mxCell id="s43rUlDpMTknoYBjIofl-47" value="" style="endArrow=classic;html=1;rounded=0;exitX=0.5;exitY=0;exitDx=0;exitDy=0;entryX=0.5;entryY=1;entryDx=0;entryDy=0;" edge="1" parent="1" source="s43rUlDpMTknoYBjIofl-2" target="s43rUlDpMTknoYBjIofl-39">
          <mxGeometry width="50" height="50" relative="1" as="geometry">
            <mxPoint x="740" y="205" as="sourcePoint" />
            <mxPoint x="685" y="205" as="targetPoint" />
          </mxGeometry>
        </mxCell>
        <mxCell id="s43rUlDpMTknoYBjIofl-50" value="1,n" style="text;html=1;strokeColor=none;fillColor=none;align=center;verticalAlign=middle;whiteSpace=wrap;rounded=0;" vertex="1" parent="1">
          <mxGeometry x="100" y="130" width="50" height="20" as="geometry" />
        </mxCell>
        <mxCell id="s43rUlDpMTknoYBjIofl-52" value="1,n" style="text;html=1;strokeColor=none;fillColor=none;align=center;verticalAlign=middle;whiteSpace=wrap;rounded=0;" vertex="1" parent="1">
          <mxGeometry x="270" y="130" width="50" height="20" as="geometry" />
        </mxCell>
        <mxCell id="s43rUlDpMTknoYBjIofl-53" value="1,n" style="text;html=1;strokeColor=none;fillColor=none;align=center;verticalAlign=middle;whiteSpace=wrap;rounded=0;" vertex="1" parent="1">
          <mxGeometry x="470" y="130" width="50" height="20" as="geometry" />
        </mxCell>
        <mxCell id="s43rUlDpMTknoYBjIofl-54" value="1,n" style="text;html=1;strokeColor=none;fillColor=none;align=center;verticalAlign=middle;whiteSpace=wrap;rounded=0;" vertex="1" parent="1">
          <mxGeometry x="620" y="130" width="50" height="20" as="geometry" />
        </mxCell>
        <mxCell id="s43rUlDpMTknoYBjIofl-55" value="1,n" style="text;html=1;strokeColor=none;fillColor=none;align=center;verticalAlign=middle;whiteSpace=wrap;rounded=0;" vertex="1" parent="1">
          <mxGeometry x="325" y="160" width="50" height="20" as="geometry" />
        </mxCell>
        <mxCell id="s43rUlDpMTknoYBjIofl-56" value="1,n" style="text;html=1;strokeColor=none;fillColor=none;align=center;verticalAlign=middle;whiteSpace=wrap;rounded=0;" vertex="1" parent="1">
          <mxGeometry x="335" y="190" width="50" height="20" as="geometry" />
        </mxCell>
        <mxCell id="s43rUlDpMTknoYBjIofl-58" value="1,n" style="text;html=1;strokeColor=none;fillColor=none;align=center;verticalAlign=middle;whiteSpace=wrap;rounded=0;" vertex="1" parent="1">
          <mxGeometry x="410" y="190" width="50" height="20" as="geometry" />
        </mxCell>
        <mxCell id="s43rUlDpMTknoYBjIofl-59" value="1,n" style="text;html=1;strokeColor=none;fillColor=none;align=center;verticalAlign=middle;whiteSpace=wrap;rounded=0;" vertex="1" parent="1">
          <mxGeometry x="430" y="160" width="50" height="20" as="geometry" />
        </mxCell>
        <mxCell id="s43rUlDpMTknoYBjIofl-60" value="1,n" style="text;html=1;strokeColor=none;fillColor=none;align=center;verticalAlign=middle;whiteSpace=wrap;rounded=0;" vertex="1" parent="1">
          <mxGeometry x="325" y="370" width="50" height="20" as="geometry" />
        </mxCell>
        <mxCell id="s43rUlDpMTknoYBjIofl-61" value="1,n" style="text;html=1;strokeColor=none;fillColor=none;align=center;verticalAlign=middle;whiteSpace=wrap;rounded=0;" vertex="1" parent="1">
          <mxGeometry x="335" y="350" width="50" height="20" as="geometry" />
        </mxCell>
        <mxCell id="s43rUlDpMTknoYBjIofl-62" value="1,n" style="text;html=1;strokeColor=none;fillColor=none;align=center;verticalAlign=middle;whiteSpace=wrap;rounded=0;" vertex="1" parent="1">
          <mxGeometry x="410" y="350" width="50" height="20" as="geometry" />
        </mxCell>
        <mxCell id="s43rUlDpMTknoYBjIofl-63" value="1,n" style="text;html=1;strokeColor=none;fillColor=none;align=center;verticalAlign=middle;whiteSpace=wrap;rounded=0;" vertex="1" parent="1">
          <mxGeometry x="430" y="370" width="50" height="20" as="geometry" />
        </mxCell>
        <mxCell id="s43rUlDpMTknoYBjIofl-323" value="Member" style="shape=table;startSize=30;container=1;collapsible=1;childLayout=tableLayout;fixedRows=1;rowLines=0;fontStyle=1;align=center;resizeLast=1;html=1;" vertex="1" parent="1">
          <mxGeometry x="1810" y="970" width="180" height="150" as="geometry" />
        </mxCell>
        <mxCell id="s43rUlDpMTknoYBjIofl-324" value="" style="shape=tableRow;horizontal=0;startSize=0;swimlaneHead=0;swimlaneBody=0;fillColor=none;collapsible=0;dropTarget=0;points=[[0,0.5],[1,0.5]];portConstraint=eastwest;top=0;left=0;right=0;bottom=1;" vertex="1" parent="s43rUlDpMTknoYBjIofl-323">
          <mxGeometry y="30" width="180" height="30" as="geometry" />
        </mxCell>
        <mxCell id="s43rUlDpMTknoYBjIofl-325" value="PK" style="shape=partialRectangle;connectable=0;fillColor=none;top=0;left=0;bottom=0;right=0;fontStyle=1;overflow=hidden;whiteSpace=wrap;html=1;" vertex="1" parent="s43rUlDpMTknoYBjIofl-324">
          <mxGeometry width="30" height="30" as="geometry">
            <mxRectangle width="30" height="30" as="alternateBounds" />
          </mxGeometry>
        </mxCell>
        <mxCell id="s43rUlDpMTknoYBjIofl-326" value="member_id" style="shape=partialRectangle;connectable=0;fillColor=none;top=0;left=0;bottom=0;right=0;align=left;spacingLeft=6;fontStyle=5;overflow=hidden;whiteSpace=wrap;html=1;" vertex="1" parent="s43rUlDpMTknoYBjIofl-324">
          <mxGeometry x="30" width="150" height="30" as="geometry">
            <mxRectangle width="150" height="30" as="alternateBounds" />
          </mxGeometry>
        </mxCell>
        <mxCell id="s43rUlDpMTknoYBjIofl-327" value="" style="shape=tableRow;horizontal=0;startSize=0;swimlaneHead=0;swimlaneBody=0;fillColor=none;collapsible=0;dropTarget=0;points=[[0,0.5],[1,0.5]];portConstraint=eastwest;top=0;left=0;right=0;bottom=0;" vertex="1" parent="s43rUlDpMTknoYBjIofl-323">
          <mxGeometry y="60" width="180" height="30" as="geometry" />
        </mxCell>
        <mxCell id="s43rUlDpMTknoYBjIofl-328" value="" style="shape=partialRectangle;connectable=0;fillColor=none;top=0;left=0;bottom=0;right=0;editable=1;overflow=hidden;whiteSpace=wrap;html=1;" vertex="1" parent="s43rUlDpMTknoYBjIofl-327">
          <mxGeometry width="30" height="30" as="geometry">
            <mxRectangle width="30" height="30" as="alternateBounds" />
          </mxGeometry>
        </mxCell>
        <mxCell id="s43rUlDpMTknoYBjIofl-329" value="name" style="shape=partialRectangle;connectable=0;fillColor=none;top=0;left=0;bottom=0;right=0;align=left;spacingLeft=6;overflow=hidden;whiteSpace=wrap;html=1;" vertex="1" parent="s43rUlDpMTknoYBjIofl-327">
          <mxGeometry x="30" width="150" height="30" as="geometry">
            <mxRectangle width="150" height="30" as="alternateBounds" />
          </mxGeometry>
        </mxCell>
        <mxCell id="s43rUlDpMTknoYBjIofl-330" value="" style="shape=tableRow;horizontal=0;startSize=0;swimlaneHead=0;swimlaneBody=0;fillColor=none;collapsible=0;dropTarget=0;points=[[0,0.5],[1,0.5]];portConstraint=eastwest;top=0;left=0;right=0;bottom=0;" vertex="1" parent="s43rUlDpMTknoYBjIofl-323">
          <mxGeometry y="90" width="180" height="30" as="geometry" />
        </mxCell>
        <mxCell id="s43rUlDpMTknoYBjIofl-331" value="" style="shape=partialRectangle;connectable=0;fillColor=none;top=0;left=0;bottom=0;right=0;editable=1;overflow=hidden;whiteSpace=wrap;html=1;" vertex="1" parent="s43rUlDpMTknoYBjIofl-330">
          <mxGeometry width="30" height="30" as="geometry">
            <mxRectangle width="30" height="30" as="alternateBounds" />
          </mxGeometry>
        </mxCell>
        <mxCell id="s43rUlDpMTknoYBjIofl-332" value="phone_number" style="shape=partialRectangle;connectable=0;fillColor=none;top=0;left=0;bottom=0;right=0;align=left;spacingLeft=6;overflow=hidden;whiteSpace=wrap;html=1;" vertex="1" parent="s43rUlDpMTknoYBjIofl-330">
          <mxGeometry x="30" width="150" height="30" as="geometry">
            <mxRectangle width="150" height="30" as="alternateBounds" />
          </mxGeometry>
        </mxCell>
        <mxCell id="s43rUlDpMTknoYBjIofl-333" value="" style="shape=tableRow;horizontal=0;startSize=0;swimlaneHead=0;swimlaneBody=0;fillColor=none;collapsible=0;dropTarget=0;points=[[0,0.5],[1,0.5]];portConstraint=eastwest;top=0;left=0;right=0;bottom=0;" vertex="1" parent="s43rUlDpMTknoYBjIofl-323">
          <mxGeometry y="120" width="180" height="30" as="geometry" />
        </mxCell>
        <mxCell id="s43rUlDpMTknoYBjIofl-334" value="" style="shape=partialRectangle;connectable=0;fillColor=none;top=0;left=0;bottom=0;right=0;editable=1;overflow=hidden;whiteSpace=wrap;html=1;" vertex="1" parent="s43rUlDpMTknoYBjIofl-333">
          <mxGeometry width="30" height="30" as="geometry">
            <mxRectangle width="30" height="30" as="alternateBounds" />
          </mxGeometry>
        </mxCell>
        <mxCell id="s43rUlDpMTknoYBjIofl-335" value="address" style="shape=partialRectangle;connectable=0;fillColor=none;top=0;left=0;bottom=0;right=0;align=left;spacingLeft=6;overflow=hidden;whiteSpace=wrap;html=1;" vertex="1" parent="s43rUlDpMTknoYBjIofl-333">
          <mxGeometry x="30" width="150" height="30" as="geometry">
            <mxRectangle width="150" height="30" as="alternateBounds" />
          </mxGeometry>
        </mxCell>
        <mxCell id="s43rUlDpMTknoYBjIofl-336" value="Author" style="shape=table;startSize=30;container=1;collapsible=1;childLayout=tableLayout;fixedRows=1;rowLines=0;fontStyle=1;align=center;resizeLast=1;html=1;" vertex="1" parent="1">
          <mxGeometry x="1230" y="430" width="180" height="90" as="geometry" />
        </mxCell>
        <mxCell id="s43rUlDpMTknoYBjIofl-337" value="" style="shape=tableRow;horizontal=0;startSize=0;swimlaneHead=0;swimlaneBody=0;fillColor=none;collapsible=0;dropTarget=0;points=[[0,0.5],[1,0.5]];portConstraint=eastwest;top=0;left=0;right=0;bottom=1;" vertex="1" parent="s43rUlDpMTknoYBjIofl-336">
          <mxGeometry y="30" width="180" height="30" as="geometry" />
        </mxCell>
        <mxCell id="s43rUlDpMTknoYBjIofl-338" value="PK" style="shape=partialRectangle;connectable=0;fillColor=none;top=0;left=0;bottom=0;right=0;fontStyle=1;overflow=hidden;whiteSpace=wrap;html=1;" vertex="1" parent="s43rUlDpMTknoYBjIofl-337">
          <mxGeometry width="30" height="30" as="geometry">
            <mxRectangle width="30" height="30" as="alternateBounds" />
          </mxGeometry>
        </mxCell>
        <mxCell id="s43rUlDpMTknoYBjIofl-339" value="author_id" style="shape=partialRectangle;connectable=0;fillColor=none;top=0;left=0;bottom=0;right=0;align=left;spacingLeft=6;fontStyle=5;overflow=hidden;whiteSpace=wrap;html=1;" vertex="1" parent="s43rUlDpMTknoYBjIofl-337">
          <mxGeometry x="30" width="150" height="30" as="geometry">
            <mxRectangle width="150" height="30" as="alternateBounds" />
          </mxGeometry>
        </mxCell>
        <mxCell id="s43rUlDpMTknoYBjIofl-340" value="" style="shape=tableRow;horizontal=0;startSize=0;swimlaneHead=0;swimlaneBody=0;fillColor=none;collapsible=0;dropTarget=0;points=[[0,0.5],[1,0.5]];portConstraint=eastwest;top=0;left=0;right=0;bottom=0;" vertex="1" parent="s43rUlDpMTknoYBjIofl-336">
          <mxGeometry y="60" width="180" height="30" as="geometry" />
        </mxCell>
        <mxCell id="s43rUlDpMTknoYBjIofl-341" value="" style="shape=partialRectangle;connectable=0;fillColor=none;top=0;left=0;bottom=0;right=0;editable=1;overflow=hidden;whiteSpace=wrap;html=1;" vertex="1" parent="s43rUlDpMTknoYBjIofl-340">
          <mxGeometry width="30" height="30" as="geometry">
            <mxRectangle width="30" height="30" as="alternateBounds" />
          </mxGeometry>
        </mxCell>
        <mxCell id="s43rUlDpMTknoYBjIofl-342" value="name" style="shape=partialRectangle;connectable=0;fillColor=none;top=0;left=0;bottom=0;right=0;align=left;spacingLeft=6;overflow=hidden;whiteSpace=wrap;html=1;" vertex="1" parent="s43rUlDpMTknoYBjIofl-340">
          <mxGeometry x="30" width="150" height="30" as="geometry">
            <mxRectangle width="150" height="30" as="alternateBounds" />
          </mxGeometry>
        </mxCell>
        <mxCell id="s43rUlDpMTknoYBjIofl-343" value="" style="shape=tableRow;horizontal=0;startSize=0;swimlaneHead=0;swimlaneBody=0;fillColor=none;collapsible=0;dropTarget=0;points=[[0,0.5],[1,0.5]];portConstraint=eastwest;top=0;left=0;right=0;bottom=0;" vertex="1" parent="s43rUlDpMTknoYBjIofl-336">
          <mxGeometry y="90" width="180" as="geometry" />
        </mxCell>
        <mxCell id="s43rUlDpMTknoYBjIofl-344" value="" style="shape=partialRectangle;connectable=0;fillColor=none;top=0;left=0;bottom=0;right=0;editable=1;overflow=hidden;whiteSpace=wrap;html=1;" vertex="1" parent="s43rUlDpMTknoYBjIofl-343">
          <mxGeometry width="30" as="geometry">
            <mxRectangle width="30" as="alternateBounds" />
          </mxGeometry>
        </mxCell>
        <mxCell id="s43rUlDpMTknoYBjIofl-345" value="" style="shape=partialRectangle;connectable=0;fillColor=none;top=0;left=0;bottom=0;right=0;align=left;spacingLeft=6;overflow=hidden;whiteSpace=wrap;html=1;" vertex="1" parent="s43rUlDpMTknoYBjIofl-343">
          <mxGeometry x="30" width="150" as="geometry">
            <mxRectangle width="150" as="alternateBounds" />
          </mxGeometry>
        </mxCell>
        <mxCell id="s43rUlDpMTknoYBjIofl-346" value="" style="shape=tableRow;horizontal=0;startSize=0;swimlaneHead=0;swimlaneBody=0;fillColor=none;collapsible=0;dropTarget=0;points=[[0,0.5],[1,0.5]];portConstraint=eastwest;top=0;left=0;right=0;bottom=0;" vertex="1" parent="s43rUlDpMTknoYBjIofl-336">
          <mxGeometry y="90" width="180" as="geometry" />
        </mxCell>
        <mxCell id="s43rUlDpMTknoYBjIofl-347" value="" style="shape=partialRectangle;connectable=0;fillColor=none;top=0;left=0;bottom=0;right=0;editable=1;overflow=hidden;whiteSpace=wrap;html=1;" vertex="1" parent="s43rUlDpMTknoYBjIofl-346">
          <mxGeometry width="30" as="geometry">
            <mxRectangle width="30" as="alternateBounds" />
          </mxGeometry>
        </mxCell>
        <mxCell id="s43rUlDpMTknoYBjIofl-348" value="" style="shape=partialRectangle;connectable=0;fillColor=none;top=0;left=0;bottom=0;right=0;align=left;spacingLeft=6;overflow=hidden;whiteSpace=wrap;html=1;fontSize=1;" vertex="1" parent="s43rUlDpMTknoYBjIofl-346">
          <mxGeometry x="30" width="150" as="geometry">
            <mxRectangle width="150" as="alternateBounds" />
          </mxGeometry>
        </mxCell>
        <mxCell id="s43rUlDpMTknoYBjIofl-349" value="Loan" style="shape=table;startSize=30;container=1;collapsible=1;childLayout=tableLayout;fixedRows=1;rowLines=0;fontStyle=1;align=center;resizeLast=1;html=1;" vertex="1" parent="1">
          <mxGeometry x="1930" y="665" width="180" height="210" as="geometry" />
        </mxCell>
        <mxCell id="s43rUlDpMTknoYBjIofl-350" value="" style="shape=tableRow;horizontal=0;startSize=0;swimlaneHead=0;swimlaneBody=0;fillColor=none;collapsible=0;dropTarget=0;points=[[0,0.5],[1,0.5]];portConstraint=eastwest;top=0;left=0;right=0;bottom=1;" vertex="1" parent="s43rUlDpMTknoYBjIofl-349">
          <mxGeometry y="30" width="180" height="30" as="geometry" />
        </mxCell>
        <mxCell id="s43rUlDpMTknoYBjIofl-351" value="PK" style="shape=partialRectangle;connectable=0;fillColor=none;top=0;left=0;bottom=0;right=0;fontStyle=1;overflow=hidden;whiteSpace=wrap;html=1;" vertex="1" parent="s43rUlDpMTknoYBjIofl-350">
          <mxGeometry width="30" height="30" as="geometry">
            <mxRectangle width="30" height="30" as="alternateBounds" />
          </mxGeometry>
        </mxCell>
        <mxCell id="s43rUlDpMTknoYBjIofl-352" value="loan_id" style="shape=partialRectangle;connectable=0;fillColor=none;top=0;left=0;bottom=0;right=0;align=left;spacingLeft=6;fontStyle=5;overflow=hidden;whiteSpace=wrap;html=1;" vertex="1" parent="s43rUlDpMTknoYBjIofl-350">
          <mxGeometry x="30" width="150" height="30" as="geometry">
            <mxRectangle width="150" height="30" as="alternateBounds" />
          </mxGeometry>
        </mxCell>
        <mxCell id="s43rUlDpMTknoYBjIofl-353" value="" style="shape=tableRow;horizontal=0;startSize=0;swimlaneHead=0;swimlaneBody=0;fillColor=none;collapsible=0;dropTarget=0;points=[[0,0.5],[1,0.5]];portConstraint=eastwest;top=0;left=0;right=0;bottom=0;" vertex="1" parent="s43rUlDpMTknoYBjIofl-349">
          <mxGeometry y="60" width="180" height="30" as="geometry" />
        </mxCell>
        <mxCell id="s43rUlDpMTknoYBjIofl-354" value="FK" style="shape=partialRectangle;connectable=0;fillColor=none;top=0;left=0;bottom=0;right=0;editable=1;overflow=hidden;whiteSpace=wrap;html=1;" vertex="1" parent="s43rUlDpMTknoYBjIofl-353">
          <mxGeometry width="30" height="30" as="geometry">
            <mxRectangle width="30" height="30" as="alternateBounds" />
          </mxGeometry>
        </mxCell>
        <mxCell id="s43rUlDpMTknoYBjIofl-355" value="book_id" style="shape=partialRectangle;connectable=0;fillColor=none;top=0;left=0;bottom=0;right=0;align=left;spacingLeft=6;overflow=hidden;whiteSpace=wrap;html=1;" vertex="1" parent="s43rUlDpMTknoYBjIofl-353">
          <mxGeometry x="30" width="150" height="30" as="geometry">
            <mxRectangle width="150" height="30" as="alternateBounds" />
          </mxGeometry>
        </mxCell>
        <mxCell id="s43rUlDpMTknoYBjIofl-356" value="" style="shape=tableRow;horizontal=0;startSize=0;swimlaneHead=0;swimlaneBody=0;fillColor=none;collapsible=0;dropTarget=0;points=[[0,0.5],[1,0.5]];portConstraint=eastwest;top=0;left=0;right=0;bottom=0;" vertex="1" parent="s43rUlDpMTknoYBjIofl-349">
          <mxGeometry y="90" width="180" height="30" as="geometry" />
        </mxCell>
        <mxCell id="s43rUlDpMTknoYBjIofl-357" value="FK" style="shape=partialRectangle;connectable=0;fillColor=none;top=0;left=0;bottom=0;right=0;editable=1;overflow=hidden;whiteSpace=wrap;html=1;" vertex="1" parent="s43rUlDpMTknoYBjIofl-356">
          <mxGeometry width="30" height="30" as="geometry">
            <mxRectangle width="30" height="30" as="alternateBounds" />
          </mxGeometry>
        </mxCell>
        <mxCell id="s43rUlDpMTknoYBjIofl-358" value="member_id" style="shape=partialRectangle;connectable=0;fillColor=none;top=0;left=0;bottom=0;right=0;align=left;spacingLeft=6;overflow=hidden;whiteSpace=wrap;html=1;" vertex="1" parent="s43rUlDpMTknoYBjIofl-356">
          <mxGeometry x="30" width="150" height="30" as="geometry">
            <mxRectangle width="150" height="30" as="alternateBounds" />
          </mxGeometry>
        </mxCell>
        <mxCell id="s43rUlDpMTknoYBjIofl-359" value="" style="shape=tableRow;horizontal=0;startSize=0;swimlaneHead=0;swimlaneBody=0;fillColor=none;collapsible=0;dropTarget=0;points=[[0,0.5],[1,0.5]];portConstraint=eastwest;top=0;left=0;right=0;bottom=0;" vertex="1" parent="s43rUlDpMTknoYBjIofl-349">
          <mxGeometry y="120" width="180" height="30" as="geometry" />
        </mxCell>
        <mxCell id="s43rUlDpMTknoYBjIofl-360" value="" style="shape=partialRectangle;connectable=0;fillColor=none;top=0;left=0;bottom=0;right=0;editable=1;overflow=hidden;whiteSpace=wrap;html=1;" vertex="1" parent="s43rUlDpMTknoYBjIofl-359">
          <mxGeometry width="30" height="30" as="geometry">
            <mxRectangle width="30" height="30" as="alternateBounds" />
          </mxGeometry>
        </mxCell>
        <mxCell id="s43rUlDpMTknoYBjIofl-361" value="loan_date" style="shape=partialRectangle;connectable=0;fillColor=none;top=0;left=0;bottom=0;right=0;align=left;spacingLeft=6;overflow=hidden;whiteSpace=wrap;html=1;" vertex="1" parent="s43rUlDpMTknoYBjIofl-359">
          <mxGeometry x="30" width="150" height="30" as="geometry">
            <mxRectangle width="150" height="30" as="alternateBounds" />
          </mxGeometry>
        </mxCell>
        <mxCell id="s43rUlDpMTknoYBjIofl-362" value="" style="shape=tableRow;horizontal=0;startSize=0;swimlaneHead=0;swimlaneBody=0;fillColor=none;collapsible=0;dropTarget=0;points=[[0,0.5],[1,0.5]];portConstraint=eastwest;top=0;left=0;right=0;bottom=0;" vertex="1" parent="s43rUlDpMTknoYBjIofl-349">
          <mxGeometry y="150" width="180" height="30" as="geometry" />
        </mxCell>
        <mxCell id="s43rUlDpMTknoYBjIofl-363" value="" style="shape=partialRectangle;connectable=0;fillColor=none;top=0;left=0;bottom=0;right=0;editable=1;overflow=hidden;whiteSpace=wrap;html=1;" vertex="1" parent="s43rUlDpMTknoYBjIofl-362">
          <mxGeometry width="30" height="30" as="geometry">
            <mxRectangle width="30" height="30" as="alternateBounds" />
          </mxGeometry>
        </mxCell>
        <mxCell id="s43rUlDpMTknoYBjIofl-364" value="due_date" style="shape=partialRectangle;connectable=0;fillColor=none;top=0;left=0;bottom=0;right=0;align=left;spacingLeft=6;overflow=hidden;whiteSpace=wrap;html=1;" vertex="1" parent="s43rUlDpMTknoYBjIofl-362">
          <mxGeometry x="30" width="150" height="30" as="geometry">
            <mxRectangle width="150" height="30" as="alternateBounds" />
          </mxGeometry>
        </mxCell>
        <mxCell id="s43rUlDpMTknoYBjIofl-365" value="" style="shape=tableRow;horizontal=0;startSize=0;swimlaneHead=0;swimlaneBody=0;fillColor=none;collapsible=0;dropTarget=0;points=[[0,0.5],[1,0.5]];portConstraint=eastwest;top=0;left=0;right=0;bottom=0;" vertex="1" parent="s43rUlDpMTknoYBjIofl-349">
          <mxGeometry y="180" width="180" height="30" as="geometry" />
        </mxCell>
        <mxCell id="s43rUlDpMTknoYBjIofl-366" value="" style="shape=partialRectangle;connectable=0;fillColor=none;top=0;left=0;bottom=0;right=0;editable=1;overflow=hidden;whiteSpace=wrap;html=1;" vertex="1" parent="s43rUlDpMTknoYBjIofl-365">
          <mxGeometry width="30" height="30" as="geometry">
            <mxRectangle width="30" height="30" as="alternateBounds" />
          </mxGeometry>
        </mxCell>
        <mxCell id="s43rUlDpMTknoYBjIofl-367" value="return_date" style="shape=partialRectangle;connectable=0;fillColor=none;top=0;left=0;bottom=0;right=0;align=left;spacingLeft=6;overflow=hidden;whiteSpace=wrap;html=1;" vertex="1" parent="s43rUlDpMTknoYBjIofl-365">
          <mxGeometry x="30" width="150" height="30" as="geometry">
            <mxRectangle width="150" height="30" as="alternateBounds" />
          </mxGeometry>
        </mxCell>
        <mxCell id="s43rUlDpMTknoYBjIofl-368" value="Book" style="shape=table;startSize=30;container=1;collapsible=1;childLayout=tableLayout;fixedRows=1;rowLines=0;fontStyle=1;align=center;resizeLast=1;html=1;" vertex="1" parent="1">
          <mxGeometry x="1810" y="400" width="180" height="150" as="geometry" />
        </mxCell>
        <mxCell id="s43rUlDpMTknoYBjIofl-369" value="" style="shape=tableRow;horizontal=0;startSize=0;swimlaneHead=0;swimlaneBody=0;fillColor=none;collapsible=0;dropTarget=0;points=[[0,0.5],[1,0.5]];portConstraint=eastwest;top=0;left=0;right=0;bottom=1;" vertex="1" parent="s43rUlDpMTknoYBjIofl-368">
          <mxGeometry y="30" width="180" height="30" as="geometry" />
        </mxCell>
        <mxCell id="s43rUlDpMTknoYBjIofl-370" value="PK" style="shape=partialRectangle;connectable=0;fillColor=none;top=0;left=0;bottom=0;right=0;fontStyle=1;overflow=hidden;whiteSpace=wrap;html=1;" vertex="1" parent="s43rUlDpMTknoYBjIofl-369">
          <mxGeometry width="30" height="30" as="geometry">
            <mxRectangle width="30" height="30" as="alternateBounds" />
          </mxGeometry>
        </mxCell>
        <mxCell id="s43rUlDpMTknoYBjIofl-371" value="book_id" style="shape=partialRectangle;connectable=0;fillColor=none;top=0;left=0;bottom=0;right=0;align=left;spacingLeft=6;fontStyle=5;overflow=hidden;whiteSpace=wrap;html=1;" vertex="1" parent="s43rUlDpMTknoYBjIofl-369">
          <mxGeometry x="30" width="150" height="30" as="geometry">
            <mxRectangle width="150" height="30" as="alternateBounds" />
          </mxGeometry>
        </mxCell>
        <mxCell id="s43rUlDpMTknoYBjIofl-372" value="" style="shape=tableRow;horizontal=0;startSize=0;swimlaneHead=0;swimlaneBody=0;fillColor=none;collapsible=0;dropTarget=0;points=[[0,0.5],[1,0.5]];portConstraint=eastwest;top=0;left=0;right=0;bottom=0;" vertex="1" parent="s43rUlDpMTknoYBjIofl-368">
          <mxGeometry y="60" width="180" height="30" as="geometry" />
        </mxCell>
        <mxCell id="s43rUlDpMTknoYBjIofl-373" value="" style="shape=partialRectangle;connectable=0;fillColor=none;top=0;left=0;bottom=0;right=0;editable=1;overflow=hidden;whiteSpace=wrap;html=1;" vertex="1" parent="s43rUlDpMTknoYBjIofl-372">
          <mxGeometry width="30" height="30" as="geometry">
            <mxRectangle width="30" height="30" as="alternateBounds" />
          </mxGeometry>
        </mxCell>
        <mxCell id="s43rUlDpMTknoYBjIofl-374" value="title" style="shape=partialRectangle;connectable=0;fillColor=none;top=0;left=0;bottom=0;right=0;align=left;spacingLeft=6;overflow=hidden;whiteSpace=wrap;html=1;" vertex="1" parent="s43rUlDpMTknoYBjIofl-372">
          <mxGeometry x="30" width="150" height="30" as="geometry">
            <mxRectangle width="150" height="30" as="alternateBounds" />
          </mxGeometry>
        </mxCell>
        <mxCell id="s43rUlDpMTknoYBjIofl-375" value="" style="shape=tableRow;horizontal=0;startSize=0;swimlaneHead=0;swimlaneBody=0;fillColor=none;collapsible=0;dropTarget=0;points=[[0,0.5],[1,0.5]];portConstraint=eastwest;top=0;left=0;right=0;bottom=0;" vertex="1" parent="s43rUlDpMTknoYBjIofl-368">
          <mxGeometry y="90" width="180" height="30" as="geometry" />
        </mxCell>
        <mxCell id="s43rUlDpMTknoYBjIofl-376" value="" style="shape=partialRectangle;connectable=0;fillColor=none;top=0;left=0;bottom=0;right=0;editable=1;overflow=hidden;whiteSpace=wrap;html=1;" vertex="1" parent="s43rUlDpMTknoYBjIofl-375">
          <mxGeometry width="30" height="30" as="geometry">
            <mxRectangle width="30" height="30" as="alternateBounds" />
          </mxGeometry>
        </mxCell>
        <mxCell id="s43rUlDpMTknoYBjIofl-377" value="publication_date" style="shape=partialRectangle;connectable=0;fillColor=none;top=0;left=0;bottom=0;right=0;align=left;spacingLeft=6;overflow=hidden;whiteSpace=wrap;html=1;" vertex="1" parent="s43rUlDpMTknoYBjIofl-375">
          <mxGeometry x="30" width="150" height="30" as="geometry">
            <mxRectangle width="150" height="30" as="alternateBounds" />
          </mxGeometry>
        </mxCell>
        <mxCell id="s43rUlDpMTknoYBjIofl-378" value="" style="shape=tableRow;horizontal=0;startSize=0;swimlaneHead=0;swimlaneBody=0;fillColor=none;collapsible=0;dropTarget=0;points=[[0,0.5],[1,0.5]];portConstraint=eastwest;top=0;left=0;right=0;bottom=0;" vertex="1" parent="s43rUlDpMTknoYBjIofl-368">
          <mxGeometry y="120" width="180" height="30" as="geometry" />
        </mxCell>
        <mxCell id="s43rUlDpMTknoYBjIofl-379" value="" style="shape=partialRectangle;connectable=0;fillColor=none;top=0;left=0;bottom=0;right=0;editable=1;overflow=hidden;whiteSpace=wrap;html=1;" vertex="1" parent="s43rUlDpMTknoYBjIofl-378">
          <mxGeometry width="30" height="30" as="geometry">
            <mxRectangle width="30" height="30" as="alternateBounds" />
          </mxGeometry>
        </mxCell>
        <mxCell id="s43rUlDpMTknoYBjIofl-380" value="amount" style="shape=partialRectangle;connectable=0;fillColor=none;top=0;left=0;bottom=0;right=0;align=left;spacingLeft=6;overflow=hidden;whiteSpace=wrap;html=1;" vertex="1" parent="s43rUlDpMTknoYBjIofl-378">
          <mxGeometry x="30" width="150" height="30" as="geometry">
            <mxRectangle width="150" height="30" as="alternateBounds" />
          </mxGeometry>
        </mxCell>
        <mxCell id="s43rUlDpMTknoYBjIofl-381" value="Author_Book" style="shape=table;startSize=30;container=1;collapsible=1;childLayout=tableLayout;fixedRows=1;rowLines=0;fontStyle=1;align=center;resizeLast=1;html=1;" vertex="1" parent="1">
          <mxGeometry x="1520" y="400" width="180" height="120" as="geometry" />
        </mxCell>
        <mxCell id="s43rUlDpMTknoYBjIofl-382" value="" style="shape=tableRow;horizontal=0;startSize=0;swimlaneHead=0;swimlaneBody=0;fillColor=none;collapsible=0;dropTarget=0;points=[[0,0.5],[1,0.5]];portConstraint=eastwest;top=0;left=0;right=0;bottom=1;" vertex="1" parent="s43rUlDpMTknoYBjIofl-381">
          <mxGeometry y="30" width="180" height="30" as="geometry" />
        </mxCell>
        <mxCell id="s43rUlDpMTknoYBjIofl-383" value="PK" style="shape=partialRectangle;connectable=0;fillColor=none;top=0;left=0;bottom=0;right=0;fontStyle=1;overflow=hidden;whiteSpace=wrap;html=1;" vertex="1" parent="s43rUlDpMTknoYBjIofl-382">
          <mxGeometry width="30" height="30" as="geometry">
            <mxRectangle width="30" height="30" as="alternateBounds" />
          </mxGeometry>
        </mxCell>
        <mxCell id="s43rUlDpMTknoYBjIofl-384" value="author_book_id" style="shape=partialRectangle;connectable=0;fillColor=none;top=0;left=0;bottom=0;right=0;align=left;spacingLeft=6;fontStyle=5;overflow=hidden;whiteSpace=wrap;html=1;" vertex="1" parent="s43rUlDpMTknoYBjIofl-382">
          <mxGeometry x="30" width="150" height="30" as="geometry">
            <mxRectangle width="150" height="30" as="alternateBounds" />
          </mxGeometry>
        </mxCell>
        <mxCell id="s43rUlDpMTknoYBjIofl-385" value="" style="shape=tableRow;horizontal=0;startSize=0;swimlaneHead=0;swimlaneBody=0;fillColor=none;collapsible=0;dropTarget=0;points=[[0,0.5],[1,0.5]];portConstraint=eastwest;top=0;left=0;right=0;bottom=0;" vertex="1" parent="s43rUlDpMTknoYBjIofl-381">
          <mxGeometry y="60" width="180" height="30" as="geometry" />
        </mxCell>
        <mxCell id="s43rUlDpMTknoYBjIofl-386" value="FK" style="shape=partialRectangle;connectable=0;fillColor=none;top=0;left=0;bottom=0;right=0;editable=1;overflow=hidden;whiteSpace=wrap;html=1;" vertex="1" parent="s43rUlDpMTknoYBjIofl-385">
          <mxGeometry width="30" height="30" as="geometry">
            <mxRectangle width="30" height="30" as="alternateBounds" />
          </mxGeometry>
        </mxCell>
        <mxCell id="s43rUlDpMTknoYBjIofl-387" value="author_id" style="shape=partialRectangle;connectable=0;fillColor=none;top=0;left=0;bottom=0;right=0;align=left;spacingLeft=6;overflow=hidden;whiteSpace=wrap;html=1;" vertex="1" parent="s43rUlDpMTknoYBjIofl-385">
          <mxGeometry x="30" width="150" height="30" as="geometry">
            <mxRectangle width="150" height="30" as="alternateBounds" />
          </mxGeometry>
        </mxCell>
        <mxCell id="s43rUlDpMTknoYBjIofl-388" value="" style="shape=tableRow;horizontal=0;startSize=0;swimlaneHead=0;swimlaneBody=0;fillColor=none;collapsible=0;dropTarget=0;points=[[0,0.5],[1,0.5]];portConstraint=eastwest;top=0;left=0;right=0;bottom=0;" vertex="1" parent="s43rUlDpMTknoYBjIofl-381">
          <mxGeometry y="90" width="180" height="30" as="geometry" />
        </mxCell>
        <mxCell id="s43rUlDpMTknoYBjIofl-389" value="FK" style="shape=partialRectangle;connectable=0;fillColor=none;top=0;left=0;bottom=0;right=0;editable=1;overflow=hidden;whiteSpace=wrap;html=1;" vertex="1" parent="s43rUlDpMTknoYBjIofl-388">
          <mxGeometry width="30" height="30" as="geometry">
            <mxRectangle width="30" height="30" as="alternateBounds" />
          </mxGeometry>
        </mxCell>
        <mxCell id="s43rUlDpMTknoYBjIofl-390" value="book_id" style="shape=partialRectangle;connectable=0;fillColor=none;top=0;left=0;bottom=0;right=0;align=left;spacingLeft=6;overflow=hidden;whiteSpace=wrap;html=1;" vertex="1" parent="s43rUlDpMTknoYBjIofl-388">
          <mxGeometry x="30" width="150" height="30" as="geometry">
            <mxRectangle width="150" height="30" as="alternateBounds" />
          </mxGeometry>
        </mxCell>
        <mxCell id="s43rUlDpMTknoYBjIofl-391" value="" style="shape=tableRow;horizontal=0;startSize=0;swimlaneHead=0;swimlaneBody=0;fillColor=none;collapsible=0;dropTarget=0;points=[[0,0.5],[1,0.5]];portConstraint=eastwest;top=0;left=0;right=0;bottom=0;" vertex="1" parent="s43rUlDpMTknoYBjIofl-381">
          <mxGeometry y="120" width="180" as="geometry" />
        </mxCell>
        <mxCell id="s43rUlDpMTknoYBjIofl-392" value="" style="shape=partialRectangle;connectable=0;fillColor=none;top=0;left=0;bottom=0;right=0;editable=1;overflow=hidden;whiteSpace=wrap;html=1;" vertex="1" parent="s43rUlDpMTknoYBjIofl-391">
          <mxGeometry width="30" as="geometry">
            <mxRectangle width="30" as="alternateBounds" />
          </mxGeometry>
        </mxCell>
        <mxCell id="s43rUlDpMTknoYBjIofl-393" value="Row 3" style="shape=partialRectangle;connectable=0;fillColor=none;top=0;left=0;bottom=0;right=0;align=left;spacingLeft=6;overflow=hidden;whiteSpace=wrap;html=1;" vertex="1" parent="s43rUlDpMTknoYBjIofl-391">
          <mxGeometry x="30" width="150" as="geometry">
            <mxRectangle width="150" as="alternateBounds" />
          </mxGeometry>
        </mxCell>
        <mxCell id="s43rUlDpMTknoYBjIofl-394" value="Category" style="shape=table;startSize=30;container=1;collapsible=1;childLayout=tableLayout;fixedRows=1;rowLines=0;fontStyle=1;align=center;resizeLast=1;html=1;" vertex="1" parent="1">
          <mxGeometry x="2350" y="430" width="180" height="90" as="geometry" />
        </mxCell>
        <mxCell id="s43rUlDpMTknoYBjIofl-395" value="" style="shape=tableRow;horizontal=0;startSize=0;swimlaneHead=0;swimlaneBody=0;fillColor=none;collapsible=0;dropTarget=0;points=[[0,0.5],[1,0.5]];portConstraint=eastwest;top=0;left=0;right=0;bottom=1;" vertex="1" parent="s43rUlDpMTknoYBjIofl-394">
          <mxGeometry y="30" width="180" height="30" as="geometry" />
        </mxCell>
        <mxCell id="s43rUlDpMTknoYBjIofl-396" value="PK" style="shape=partialRectangle;connectable=0;fillColor=none;top=0;left=0;bottom=0;right=0;fontStyle=1;overflow=hidden;whiteSpace=wrap;html=1;" vertex="1" parent="s43rUlDpMTknoYBjIofl-395">
          <mxGeometry width="30" height="30" as="geometry">
            <mxRectangle width="30" height="30" as="alternateBounds" />
          </mxGeometry>
        </mxCell>
        <mxCell id="s43rUlDpMTknoYBjIofl-397" value="category_id" style="shape=partialRectangle;connectable=0;fillColor=none;top=0;left=0;bottom=0;right=0;align=left;spacingLeft=6;fontStyle=5;overflow=hidden;whiteSpace=wrap;html=1;" vertex="1" parent="s43rUlDpMTknoYBjIofl-395">
          <mxGeometry x="30" width="150" height="30" as="geometry">
            <mxRectangle width="150" height="30" as="alternateBounds" />
          </mxGeometry>
        </mxCell>
        <mxCell id="s43rUlDpMTknoYBjIofl-398" value="" style="shape=tableRow;horizontal=0;startSize=0;swimlaneHead=0;swimlaneBody=0;fillColor=none;collapsible=0;dropTarget=0;points=[[0,0.5],[1,0.5]];portConstraint=eastwest;top=0;left=0;right=0;bottom=0;" vertex="1" parent="s43rUlDpMTknoYBjIofl-394">
          <mxGeometry y="60" width="180" height="30" as="geometry" />
        </mxCell>
        <mxCell id="s43rUlDpMTknoYBjIofl-399" value="" style="shape=partialRectangle;connectable=0;fillColor=none;top=0;left=0;bottom=0;right=0;editable=1;overflow=hidden;whiteSpace=wrap;html=1;" vertex="1" parent="s43rUlDpMTknoYBjIofl-398">
          <mxGeometry width="30" height="30" as="geometry">
            <mxRectangle width="30" height="30" as="alternateBounds" />
          </mxGeometry>
        </mxCell>
        <mxCell id="s43rUlDpMTknoYBjIofl-400" value="name" style="shape=partialRectangle;connectable=0;fillColor=none;top=0;left=0;bottom=0;right=0;align=left;spacingLeft=6;overflow=hidden;whiteSpace=wrap;html=1;" vertex="1" parent="s43rUlDpMTknoYBjIofl-398">
          <mxGeometry x="30" width="150" height="30" as="geometry">
            <mxRectangle width="150" height="30" as="alternateBounds" />
          </mxGeometry>
        </mxCell>
        <mxCell id="s43rUlDpMTknoYBjIofl-401" value="" style="shape=tableRow;horizontal=0;startSize=0;swimlaneHead=0;swimlaneBody=0;fillColor=none;collapsible=0;dropTarget=0;points=[[0,0.5],[1,0.5]];portConstraint=eastwest;top=0;left=0;right=0;bottom=0;" vertex="1" parent="s43rUlDpMTknoYBjIofl-394">
          <mxGeometry y="90" width="180" as="geometry" />
        </mxCell>
        <mxCell id="s43rUlDpMTknoYBjIofl-402" value="" style="shape=partialRectangle;connectable=0;fillColor=none;top=0;left=0;bottom=0;right=0;editable=1;overflow=hidden;whiteSpace=wrap;html=1;" vertex="1" parent="s43rUlDpMTknoYBjIofl-401">
          <mxGeometry width="30" as="geometry">
            <mxRectangle width="30" as="alternateBounds" />
          </mxGeometry>
        </mxCell>
        <mxCell id="s43rUlDpMTknoYBjIofl-403" value="" style="shape=partialRectangle;connectable=0;fillColor=none;top=0;left=0;bottom=0;right=0;align=left;spacingLeft=6;overflow=hidden;whiteSpace=wrap;html=1;" vertex="1" parent="s43rUlDpMTknoYBjIofl-401">
          <mxGeometry x="30" width="150" as="geometry">
            <mxRectangle width="150" as="alternateBounds" />
          </mxGeometry>
        </mxCell>
        <mxCell id="s43rUlDpMTknoYBjIofl-404" value="" style="shape=tableRow;horizontal=0;startSize=0;swimlaneHead=0;swimlaneBody=0;fillColor=none;collapsible=0;dropTarget=0;points=[[0,0.5],[1,0.5]];portConstraint=eastwest;top=0;left=0;right=0;bottom=0;" vertex="1" parent="s43rUlDpMTknoYBjIofl-394">
          <mxGeometry y="90" width="180" as="geometry" />
        </mxCell>
        <mxCell id="s43rUlDpMTknoYBjIofl-405" value="" style="shape=partialRectangle;connectable=0;fillColor=none;top=0;left=0;bottom=0;right=0;editable=1;overflow=hidden;whiteSpace=wrap;html=1;" vertex="1" parent="s43rUlDpMTknoYBjIofl-404">
          <mxGeometry width="30" as="geometry">
            <mxRectangle width="30" as="alternateBounds" />
          </mxGeometry>
        </mxCell>
        <mxCell id="s43rUlDpMTknoYBjIofl-406" value="" style="shape=partialRectangle;connectable=0;fillColor=none;top=0;left=0;bottom=0;right=0;align=left;spacingLeft=6;overflow=hidden;whiteSpace=wrap;html=1;fontSize=1;" vertex="1" parent="s43rUlDpMTknoYBjIofl-404">
          <mxGeometry x="30" width="150" as="geometry">
            <mxRectangle width="150" as="alternateBounds" />
          </mxGeometry>
        </mxCell>
        <mxCell id="s43rUlDpMTknoYBjIofl-407" value="Reservation" style="shape=table;startSize=30;container=1;collapsible=1;childLayout=tableLayout;fixedRows=1;rowLines=0;fontStyle=1;align=center;resizeLast=1;html=1;" vertex="1" parent="1">
          <mxGeometry x="1690" y="695" width="180" height="150" as="geometry" />
        </mxCell>
        <mxCell id="s43rUlDpMTknoYBjIofl-408" value="" style="shape=tableRow;horizontal=0;startSize=0;swimlaneHead=0;swimlaneBody=0;fillColor=none;collapsible=0;dropTarget=0;points=[[0,0.5],[1,0.5]];portConstraint=eastwest;top=0;left=0;right=0;bottom=1;" vertex="1" parent="s43rUlDpMTknoYBjIofl-407">
          <mxGeometry y="30" width="180" height="30" as="geometry" />
        </mxCell>
        <mxCell id="s43rUlDpMTknoYBjIofl-409" value="PK" style="shape=partialRectangle;connectable=0;fillColor=none;top=0;left=0;bottom=0;right=0;fontStyle=1;overflow=hidden;whiteSpace=wrap;html=1;" vertex="1" parent="s43rUlDpMTknoYBjIofl-408">
          <mxGeometry width="30" height="30" as="geometry">
            <mxRectangle width="30" height="30" as="alternateBounds" />
          </mxGeometry>
        </mxCell>
        <mxCell id="s43rUlDpMTknoYBjIofl-410" value="reservation_id" style="shape=partialRectangle;connectable=0;fillColor=none;top=0;left=0;bottom=0;right=0;align=left;spacingLeft=6;fontStyle=5;overflow=hidden;whiteSpace=wrap;html=1;" vertex="1" parent="s43rUlDpMTknoYBjIofl-408">
          <mxGeometry x="30" width="150" height="30" as="geometry">
            <mxRectangle width="150" height="30" as="alternateBounds" />
          </mxGeometry>
        </mxCell>
        <mxCell id="s43rUlDpMTknoYBjIofl-411" value="" style="shape=tableRow;horizontal=0;startSize=0;swimlaneHead=0;swimlaneBody=0;fillColor=none;collapsible=0;dropTarget=0;points=[[0,0.5],[1,0.5]];portConstraint=eastwest;top=0;left=0;right=0;bottom=0;" vertex="1" parent="s43rUlDpMTknoYBjIofl-407">
          <mxGeometry y="60" width="180" height="30" as="geometry" />
        </mxCell>
        <mxCell id="s43rUlDpMTknoYBjIofl-412" value="FK" style="shape=partialRectangle;connectable=0;fillColor=none;top=0;left=0;bottom=0;right=0;editable=1;overflow=hidden;whiteSpace=wrap;html=1;" vertex="1" parent="s43rUlDpMTknoYBjIofl-411">
          <mxGeometry width="30" height="30" as="geometry">
            <mxRectangle width="30" height="30" as="alternateBounds" />
          </mxGeometry>
        </mxCell>
        <mxCell id="s43rUlDpMTknoYBjIofl-413" value="book_id" style="shape=partialRectangle;connectable=0;fillColor=none;top=0;left=0;bottom=0;right=0;align=left;spacingLeft=6;overflow=hidden;whiteSpace=wrap;html=1;" vertex="1" parent="s43rUlDpMTknoYBjIofl-411">
          <mxGeometry x="30" width="150" height="30" as="geometry">
            <mxRectangle width="150" height="30" as="alternateBounds" />
          </mxGeometry>
        </mxCell>
        <mxCell id="s43rUlDpMTknoYBjIofl-414" value="" style="shape=tableRow;horizontal=0;startSize=0;swimlaneHead=0;swimlaneBody=0;fillColor=none;collapsible=0;dropTarget=0;points=[[0,0.5],[1,0.5]];portConstraint=eastwest;top=0;left=0;right=0;bottom=0;" vertex="1" parent="s43rUlDpMTknoYBjIofl-407">
          <mxGeometry y="90" width="180" height="30" as="geometry" />
        </mxCell>
        <mxCell id="s43rUlDpMTknoYBjIofl-415" value="FK" style="shape=partialRectangle;connectable=0;fillColor=none;top=0;left=0;bottom=0;right=0;editable=1;overflow=hidden;whiteSpace=wrap;html=1;" vertex="1" parent="s43rUlDpMTknoYBjIofl-414">
          <mxGeometry width="30" height="30" as="geometry">
            <mxRectangle width="30" height="30" as="alternateBounds" />
          </mxGeometry>
        </mxCell>
        <mxCell id="s43rUlDpMTknoYBjIofl-416" value="member_id" style="shape=partialRectangle;connectable=0;fillColor=none;top=0;left=0;bottom=0;right=0;align=left;spacingLeft=6;overflow=hidden;whiteSpace=wrap;html=1;" vertex="1" parent="s43rUlDpMTknoYBjIofl-414">
          <mxGeometry x="30" width="150" height="30" as="geometry">
            <mxRectangle width="150" height="30" as="alternateBounds" />
          </mxGeometry>
        </mxCell>
        <mxCell id="s43rUlDpMTknoYBjIofl-417" value="" style="shape=tableRow;horizontal=0;startSize=0;swimlaneHead=0;swimlaneBody=0;fillColor=none;collapsible=0;dropTarget=0;points=[[0,0.5],[1,0.5]];portConstraint=eastwest;top=0;left=0;right=0;bottom=0;" vertex="1" parent="s43rUlDpMTknoYBjIofl-407">
          <mxGeometry y="120" width="180" height="30" as="geometry" />
        </mxCell>
        <mxCell id="s43rUlDpMTknoYBjIofl-418" value="" style="shape=partialRectangle;connectable=0;fillColor=none;top=0;left=0;bottom=0;right=0;editable=1;overflow=hidden;whiteSpace=wrap;html=1;" vertex="1" parent="s43rUlDpMTknoYBjIofl-417">
          <mxGeometry width="30" height="30" as="geometry">
            <mxRectangle width="30" height="30" as="alternateBounds" />
          </mxGeometry>
        </mxCell>
        <mxCell id="s43rUlDpMTknoYBjIofl-419" value="reservation_date" style="shape=partialRectangle;connectable=0;fillColor=none;top=0;left=0;bottom=0;right=0;align=left;spacingLeft=6;overflow=hidden;whiteSpace=wrap;html=1;" vertex="1" parent="s43rUlDpMTknoYBjIofl-417">
          <mxGeometry x="30" width="150" height="30" as="geometry">
            <mxRectangle width="150" height="30" as="alternateBounds" />
          </mxGeometry>
        </mxCell>
        <mxCell id="s43rUlDpMTknoYBjIofl-420" value="Book_Category" style="shape=table;startSize=30;container=1;collapsible=1;childLayout=tableLayout;fixedRows=1;rowLines=0;fontStyle=1;align=center;resizeLast=1;html=1;" vertex="1" parent="1">
          <mxGeometry x="2090" y="430" width="180" height="120" as="geometry" />
        </mxCell>
        <mxCell id="s43rUlDpMTknoYBjIofl-421" value="" style="shape=tableRow;horizontal=0;startSize=0;swimlaneHead=0;swimlaneBody=0;fillColor=none;collapsible=0;dropTarget=0;points=[[0,0.5],[1,0.5]];portConstraint=eastwest;top=0;left=0;right=0;bottom=1;" vertex="1" parent="s43rUlDpMTknoYBjIofl-420">
          <mxGeometry y="30" width="180" height="30" as="geometry" />
        </mxCell>
        <mxCell id="s43rUlDpMTknoYBjIofl-422" value="PK" style="shape=partialRectangle;connectable=0;fillColor=none;top=0;left=0;bottom=0;right=0;fontStyle=1;overflow=hidden;whiteSpace=wrap;html=1;" vertex="1" parent="s43rUlDpMTknoYBjIofl-421">
          <mxGeometry width="30" height="30" as="geometry">
            <mxRectangle width="30" height="30" as="alternateBounds" />
          </mxGeometry>
        </mxCell>
        <mxCell id="s43rUlDpMTknoYBjIofl-423" value="book_category_id" style="shape=partialRectangle;connectable=0;fillColor=none;top=0;left=0;bottom=0;right=0;align=left;spacingLeft=6;fontStyle=5;overflow=hidden;whiteSpace=wrap;html=1;" vertex="1" parent="s43rUlDpMTknoYBjIofl-421">
          <mxGeometry x="30" width="150" height="30" as="geometry">
            <mxRectangle width="150" height="30" as="alternateBounds" />
          </mxGeometry>
        </mxCell>
        <mxCell id="s43rUlDpMTknoYBjIofl-424" value="" style="shape=tableRow;horizontal=0;startSize=0;swimlaneHead=0;swimlaneBody=0;fillColor=none;collapsible=0;dropTarget=0;points=[[0,0.5],[1,0.5]];portConstraint=eastwest;top=0;left=0;right=0;bottom=0;" vertex="1" parent="s43rUlDpMTknoYBjIofl-420">
          <mxGeometry y="60" width="180" height="30" as="geometry" />
        </mxCell>
        <mxCell id="s43rUlDpMTknoYBjIofl-425" value="FK" style="shape=partialRectangle;connectable=0;fillColor=none;top=0;left=0;bottom=0;right=0;editable=1;overflow=hidden;whiteSpace=wrap;html=1;" vertex="1" parent="s43rUlDpMTknoYBjIofl-424">
          <mxGeometry width="30" height="30" as="geometry">
            <mxRectangle width="30" height="30" as="alternateBounds" />
          </mxGeometry>
        </mxCell>
        <mxCell id="s43rUlDpMTknoYBjIofl-426" value="book_id" style="shape=partialRectangle;connectable=0;fillColor=none;top=0;left=0;bottom=0;right=0;align=left;spacingLeft=6;overflow=hidden;whiteSpace=wrap;html=1;" vertex="1" parent="s43rUlDpMTknoYBjIofl-424">
          <mxGeometry x="30" width="150" height="30" as="geometry">
            <mxRectangle width="150" height="30" as="alternateBounds" />
          </mxGeometry>
        </mxCell>
        <mxCell id="s43rUlDpMTknoYBjIofl-427" value="" style="shape=tableRow;horizontal=0;startSize=0;swimlaneHead=0;swimlaneBody=0;fillColor=none;collapsible=0;dropTarget=0;points=[[0,0.5],[1,0.5]];portConstraint=eastwest;top=0;left=0;right=0;bottom=0;" vertex="1" parent="s43rUlDpMTknoYBjIofl-420">
          <mxGeometry y="90" width="180" height="30" as="geometry" />
        </mxCell>
        <mxCell id="s43rUlDpMTknoYBjIofl-428" value="FK" style="shape=partialRectangle;connectable=0;fillColor=none;top=0;left=0;bottom=0;right=0;editable=1;overflow=hidden;whiteSpace=wrap;html=1;" vertex="1" parent="s43rUlDpMTknoYBjIofl-427">
          <mxGeometry width="30" height="30" as="geometry">
            <mxRectangle width="30" height="30" as="alternateBounds" />
          </mxGeometry>
        </mxCell>
        <mxCell id="s43rUlDpMTknoYBjIofl-429" value="category_id" style="shape=partialRectangle;connectable=0;fillColor=none;top=0;left=0;bottom=0;right=0;align=left;spacingLeft=6;overflow=hidden;whiteSpace=wrap;html=1;" vertex="1" parent="s43rUlDpMTknoYBjIofl-427">
          <mxGeometry x="30" width="150" height="30" as="geometry">
            <mxRectangle width="150" height="30" as="alternateBounds" />
          </mxGeometry>
        </mxCell>
        <mxCell id="s43rUlDpMTknoYBjIofl-430" value="" style="shape=tableRow;horizontal=0;startSize=0;swimlaneHead=0;swimlaneBody=0;fillColor=none;collapsible=0;dropTarget=0;points=[[0,0.5],[1,0.5]];portConstraint=eastwest;top=0;left=0;right=0;bottom=0;" vertex="1" parent="s43rUlDpMTknoYBjIofl-420">
          <mxGeometry y="120" width="180" as="geometry" />
        </mxCell>
        <mxCell id="s43rUlDpMTknoYBjIofl-431" value="" style="shape=partialRectangle;connectable=0;fillColor=none;top=0;left=0;bottom=0;right=0;editable=1;overflow=hidden;whiteSpace=wrap;html=1;" vertex="1" parent="s43rUlDpMTknoYBjIofl-430">
          <mxGeometry width="30" as="geometry">
            <mxRectangle width="30" as="alternateBounds" />
          </mxGeometry>
        </mxCell>
        <mxCell id="s43rUlDpMTknoYBjIofl-432" value="Row 3" style="shape=partialRectangle;connectable=0;fillColor=none;top=0;left=0;bottom=0;right=0;align=left;spacingLeft=6;overflow=hidden;whiteSpace=wrap;html=1;" vertex="1" parent="s43rUlDpMTknoYBjIofl-430">
          <mxGeometry x="30" width="150" as="geometry">
            <mxRectangle width="150" as="alternateBounds" />
          </mxGeometry>
        </mxCell>
        <mxCell id="s43rUlDpMTknoYBjIofl-433" value="Favorite" style="shape=table;startSize=30;container=1;collapsible=1;childLayout=tableLayout;fixedRows=1;rowLines=0;fontStyle=1;align=center;resizeLast=1;html=1;" vertex="1" parent="1">
          <mxGeometry x="2170" y="710" width="180" height="120" as="geometry" />
        </mxCell>
        <mxCell id="s43rUlDpMTknoYBjIofl-434" value="" style="shape=tableRow;horizontal=0;startSize=0;swimlaneHead=0;swimlaneBody=0;fillColor=none;collapsible=0;dropTarget=0;points=[[0,0.5],[1,0.5]];portConstraint=eastwest;top=0;left=0;right=0;bottom=1;" vertex="1" parent="s43rUlDpMTknoYBjIofl-433">
          <mxGeometry y="30" width="180" height="30" as="geometry" />
        </mxCell>
        <mxCell id="s43rUlDpMTknoYBjIofl-435" value="PK" style="shape=partialRectangle;connectable=0;fillColor=none;top=0;left=0;bottom=0;right=0;fontStyle=1;overflow=hidden;whiteSpace=wrap;html=1;" vertex="1" parent="s43rUlDpMTknoYBjIofl-434">
          <mxGeometry width="30" height="30" as="geometry">
            <mxRectangle width="30" height="30" as="alternateBounds" />
          </mxGeometry>
        </mxCell>
        <mxCell id="s43rUlDpMTknoYBjIofl-436" value="favorite_id" style="shape=partialRectangle;connectable=0;fillColor=none;top=0;left=0;bottom=0;right=0;align=left;spacingLeft=6;fontStyle=5;overflow=hidden;whiteSpace=wrap;html=1;" vertex="1" parent="s43rUlDpMTknoYBjIofl-434">
          <mxGeometry x="30" width="150" height="30" as="geometry">
            <mxRectangle width="150" height="30" as="alternateBounds" />
          </mxGeometry>
        </mxCell>
        <mxCell id="s43rUlDpMTknoYBjIofl-437" value="" style="shape=tableRow;horizontal=0;startSize=0;swimlaneHead=0;swimlaneBody=0;fillColor=none;collapsible=0;dropTarget=0;points=[[0,0.5],[1,0.5]];portConstraint=eastwest;top=0;left=0;right=0;bottom=0;" vertex="1" parent="s43rUlDpMTknoYBjIofl-433">
          <mxGeometry y="60" width="180" height="30" as="geometry" />
        </mxCell>
        <mxCell id="s43rUlDpMTknoYBjIofl-438" value="FK" style="shape=partialRectangle;connectable=0;fillColor=none;top=0;left=0;bottom=0;right=0;editable=1;overflow=hidden;whiteSpace=wrap;html=1;" vertex="1" parent="s43rUlDpMTknoYBjIofl-437">
          <mxGeometry width="30" height="30" as="geometry">
            <mxRectangle width="30" height="30" as="alternateBounds" />
          </mxGeometry>
        </mxCell>
        <mxCell id="s43rUlDpMTknoYBjIofl-439" value="book_id" style="shape=partialRectangle;connectable=0;fillColor=none;top=0;left=0;bottom=0;right=0;align=left;spacingLeft=6;overflow=hidden;whiteSpace=wrap;html=1;" vertex="1" parent="s43rUlDpMTknoYBjIofl-437">
          <mxGeometry x="30" width="150" height="30" as="geometry">
            <mxRectangle width="150" height="30" as="alternateBounds" />
          </mxGeometry>
        </mxCell>
        <mxCell id="s43rUlDpMTknoYBjIofl-440" value="" style="shape=tableRow;horizontal=0;startSize=0;swimlaneHead=0;swimlaneBody=0;fillColor=none;collapsible=0;dropTarget=0;points=[[0,0.5],[1,0.5]];portConstraint=eastwest;top=0;left=0;right=0;bottom=0;" vertex="1" parent="s43rUlDpMTknoYBjIofl-433">
          <mxGeometry y="90" width="180" height="30" as="geometry" />
        </mxCell>
        <mxCell id="s43rUlDpMTknoYBjIofl-441" value="FK" style="shape=partialRectangle;connectable=0;fillColor=none;top=0;left=0;bottom=0;right=0;editable=1;overflow=hidden;whiteSpace=wrap;html=1;" vertex="1" parent="s43rUlDpMTknoYBjIofl-440">
          <mxGeometry width="30" height="30" as="geometry">
            <mxRectangle width="30" height="30" as="alternateBounds" />
          </mxGeometry>
        </mxCell>
        <mxCell id="s43rUlDpMTknoYBjIofl-442" value="member_id" style="shape=partialRectangle;connectable=0;fillColor=none;top=0;left=0;bottom=0;right=0;align=left;spacingLeft=6;overflow=hidden;whiteSpace=wrap;html=1;" vertex="1" parent="s43rUlDpMTknoYBjIofl-440">
          <mxGeometry x="30" width="150" height="30" as="geometry">
            <mxRectangle width="150" height="30" as="alternateBounds" />
          </mxGeometry>
        </mxCell>
        <mxCell id="s43rUlDpMTknoYBjIofl-443" value="" style="shape=tableRow;horizontal=0;startSize=0;swimlaneHead=0;swimlaneBody=0;fillColor=none;collapsible=0;dropTarget=0;points=[[0,0.5],[1,0.5]];portConstraint=eastwest;top=0;left=0;right=0;bottom=0;" vertex="1" parent="s43rUlDpMTknoYBjIofl-433">
          <mxGeometry y="120" width="180" as="geometry" />
        </mxCell>
        <mxCell id="s43rUlDpMTknoYBjIofl-444" value="" style="shape=partialRectangle;connectable=0;fillColor=none;top=0;left=0;bottom=0;right=0;editable=1;overflow=hidden;whiteSpace=wrap;html=1;" vertex="1" parent="s43rUlDpMTknoYBjIofl-443">
          <mxGeometry width="30" as="geometry">
            <mxRectangle width="30" as="alternateBounds" />
          </mxGeometry>
        </mxCell>
        <mxCell id="s43rUlDpMTknoYBjIofl-445" value="Row 3" style="shape=partialRectangle;connectable=0;fillColor=none;top=0;left=0;bottom=0;right=0;align=left;spacingLeft=6;overflow=hidden;whiteSpace=wrap;html=1;" vertex="1" parent="s43rUlDpMTknoYBjIofl-443">
          <mxGeometry x="30" width="150" as="geometry">
            <mxRectangle width="150" as="alternateBounds" />
          </mxGeometry>
        </mxCell>
        <mxCell id="s43rUlDpMTknoYBjIofl-446" value="Review" style="shape=table;startSize=30;container=1;collapsible=1;childLayout=tableLayout;fixedRows=1;rowLines=0;fontStyle=1;align=center;resizeLast=1;html=1;" vertex="1" parent="1">
          <mxGeometry x="1450" y="680" width="180" height="180" as="geometry" />
        </mxCell>
        <mxCell id="s43rUlDpMTknoYBjIofl-447" value="" style="shape=tableRow;horizontal=0;startSize=0;swimlaneHead=0;swimlaneBody=0;fillColor=none;collapsible=0;dropTarget=0;points=[[0,0.5],[1,0.5]];portConstraint=eastwest;top=0;left=0;right=0;bottom=1;" vertex="1" parent="s43rUlDpMTknoYBjIofl-446">
          <mxGeometry y="30" width="180" height="30" as="geometry" />
        </mxCell>
        <mxCell id="s43rUlDpMTknoYBjIofl-448" value="PK" style="shape=partialRectangle;connectable=0;fillColor=none;top=0;left=0;bottom=0;right=0;fontStyle=1;overflow=hidden;whiteSpace=wrap;html=1;" vertex="1" parent="s43rUlDpMTknoYBjIofl-447">
          <mxGeometry width="30" height="30" as="geometry">
            <mxRectangle width="30" height="30" as="alternateBounds" />
          </mxGeometry>
        </mxCell>
        <mxCell id="s43rUlDpMTknoYBjIofl-449" value="review_id" style="shape=partialRectangle;connectable=0;fillColor=none;top=0;left=0;bottom=0;right=0;align=left;spacingLeft=6;fontStyle=5;overflow=hidden;whiteSpace=wrap;html=1;" vertex="1" parent="s43rUlDpMTknoYBjIofl-447">
          <mxGeometry x="30" width="150" height="30" as="geometry">
            <mxRectangle width="150" height="30" as="alternateBounds" />
          </mxGeometry>
        </mxCell>
        <mxCell id="s43rUlDpMTknoYBjIofl-450" value="" style="shape=tableRow;horizontal=0;startSize=0;swimlaneHead=0;swimlaneBody=0;fillColor=none;collapsible=0;dropTarget=0;points=[[0,0.5],[1,0.5]];portConstraint=eastwest;top=0;left=0;right=0;bottom=0;" vertex="1" parent="s43rUlDpMTknoYBjIofl-446">
          <mxGeometry y="60" width="180" height="30" as="geometry" />
        </mxCell>
        <mxCell id="s43rUlDpMTknoYBjIofl-451" value="FK" style="shape=partialRectangle;connectable=0;fillColor=none;top=0;left=0;bottom=0;right=0;editable=1;overflow=hidden;whiteSpace=wrap;html=1;" vertex="1" parent="s43rUlDpMTknoYBjIofl-450">
          <mxGeometry width="30" height="30" as="geometry">
            <mxRectangle width="30" height="30" as="alternateBounds" />
          </mxGeometry>
        </mxCell>
        <mxCell id="s43rUlDpMTknoYBjIofl-452" value="book_id" style="shape=partialRectangle;connectable=0;fillColor=none;top=0;left=0;bottom=0;right=0;align=left;spacingLeft=6;overflow=hidden;whiteSpace=wrap;html=1;" vertex="1" parent="s43rUlDpMTknoYBjIofl-450">
          <mxGeometry x="30" width="150" height="30" as="geometry">
            <mxRectangle width="150" height="30" as="alternateBounds" />
          </mxGeometry>
        </mxCell>
        <mxCell id="s43rUlDpMTknoYBjIofl-453" value="" style="shape=tableRow;horizontal=0;startSize=0;swimlaneHead=0;swimlaneBody=0;fillColor=none;collapsible=0;dropTarget=0;points=[[0,0.5],[1,0.5]];portConstraint=eastwest;top=0;left=0;right=0;bottom=0;" vertex="1" parent="s43rUlDpMTknoYBjIofl-446">
          <mxGeometry y="90" width="180" height="30" as="geometry" />
        </mxCell>
        <mxCell id="s43rUlDpMTknoYBjIofl-454" value="FK" style="shape=partialRectangle;connectable=0;fillColor=none;top=0;left=0;bottom=0;right=0;editable=1;overflow=hidden;whiteSpace=wrap;html=1;" vertex="1" parent="s43rUlDpMTknoYBjIofl-453">
          <mxGeometry width="30" height="30" as="geometry">
            <mxRectangle width="30" height="30" as="alternateBounds" />
          </mxGeometry>
        </mxCell>
        <mxCell id="s43rUlDpMTknoYBjIofl-455" value="member_id" style="shape=partialRectangle;connectable=0;fillColor=none;top=0;left=0;bottom=0;right=0;align=left;spacingLeft=6;overflow=hidden;whiteSpace=wrap;html=1;" vertex="1" parent="s43rUlDpMTknoYBjIofl-453">
          <mxGeometry x="30" width="150" height="30" as="geometry">
            <mxRectangle width="150" height="30" as="alternateBounds" />
          </mxGeometry>
        </mxCell>
        <mxCell id="s43rUlDpMTknoYBjIofl-456" value="" style="shape=tableRow;horizontal=0;startSize=0;swimlaneHead=0;swimlaneBody=0;fillColor=none;collapsible=0;dropTarget=0;points=[[0,0.5],[1,0.5]];portConstraint=eastwest;top=0;left=0;right=0;bottom=0;" vertex="1" parent="s43rUlDpMTknoYBjIofl-446">
          <mxGeometry y="120" width="180" height="30" as="geometry" />
        </mxCell>
        <mxCell id="s43rUlDpMTknoYBjIofl-457" value="" style="shape=partialRectangle;connectable=0;fillColor=none;top=0;left=0;bottom=0;right=0;editable=1;overflow=hidden;whiteSpace=wrap;html=1;" vertex="1" parent="s43rUlDpMTknoYBjIofl-456">
          <mxGeometry width="30" height="30" as="geometry">
            <mxRectangle width="30" height="30" as="alternateBounds" />
          </mxGeometry>
        </mxCell>
        <mxCell id="s43rUlDpMTknoYBjIofl-458" value="comment" style="shape=partialRectangle;connectable=0;fillColor=none;top=0;left=0;bottom=0;right=0;align=left;spacingLeft=6;overflow=hidden;whiteSpace=wrap;html=1;" vertex="1" parent="s43rUlDpMTknoYBjIofl-456">
          <mxGeometry x="30" width="150" height="30" as="geometry">
            <mxRectangle width="150" height="30" as="alternateBounds" />
          </mxGeometry>
        </mxCell>
        <mxCell id="s43rUlDpMTknoYBjIofl-459" value="" style="shape=tableRow;horizontal=0;startSize=0;swimlaneHead=0;swimlaneBody=0;fillColor=none;collapsible=0;dropTarget=0;points=[[0,0.5],[1,0.5]];portConstraint=eastwest;top=0;left=0;right=0;bottom=0;" vertex="1" parent="s43rUlDpMTknoYBjIofl-446">
          <mxGeometry y="150" width="180" as="geometry" />
        </mxCell>
        <mxCell id="s43rUlDpMTknoYBjIofl-460" value="" style="shape=partialRectangle;connectable=0;fillColor=none;top=0;left=0;bottom=0;right=0;editable=1;overflow=hidden;whiteSpace=wrap;html=1;" vertex="1" parent="s43rUlDpMTknoYBjIofl-459">
          <mxGeometry width="30" as="geometry">
            <mxRectangle width="30" as="alternateBounds" />
          </mxGeometry>
        </mxCell>
        <mxCell id="s43rUlDpMTknoYBjIofl-461" value="Row 3" style="shape=partialRectangle;connectable=0;fillColor=none;top=0;left=0;bottom=0;right=0;align=left;spacingLeft=6;overflow=hidden;whiteSpace=wrap;html=1;" vertex="1" parent="s43rUlDpMTknoYBjIofl-459">
          <mxGeometry x="30" width="150" as="geometry">
            <mxRectangle width="150" as="alternateBounds" />
          </mxGeometry>
        </mxCell>
        <mxCell id="s43rUlDpMTknoYBjIofl-462" value="" style="shape=tableRow;horizontal=0;startSize=0;swimlaneHead=0;swimlaneBody=0;fillColor=none;collapsible=0;dropTarget=0;points=[[0,0.5],[1,0.5]];portConstraint=eastwest;top=0;left=0;right=0;bottom=0;" vertex="1" parent="s43rUlDpMTknoYBjIofl-446">
          <mxGeometry y="150" width="180" height="30" as="geometry" />
        </mxCell>
        <mxCell id="s43rUlDpMTknoYBjIofl-463" value="" style="shape=partialRectangle;connectable=0;fillColor=none;top=0;left=0;bottom=0;right=0;editable=1;overflow=hidden;whiteSpace=wrap;html=1;" vertex="1" parent="s43rUlDpMTknoYBjIofl-462">
          <mxGeometry width="30" height="30" as="geometry">
            <mxRectangle width="30" height="30" as="alternateBounds" />
          </mxGeometry>
        </mxCell>
        <mxCell id="s43rUlDpMTknoYBjIofl-464" value="review_date" style="shape=partialRectangle;connectable=0;fillColor=none;top=0;left=0;bottom=0;right=0;align=left;spacingLeft=6;overflow=hidden;whiteSpace=wrap;html=1;" vertex="1" parent="s43rUlDpMTknoYBjIofl-462">
          <mxGeometry x="30" width="150" height="30" as="geometry">
            <mxRectangle width="150" height="30" as="alternateBounds" />
          </mxGeometry>
        </mxCell>
        <mxCell id="s43rUlDpMTknoYBjIofl-465" value="" style="endArrow=classic;html=1;rounded=0;exitX=0;exitY=0.5;exitDx=0;exitDy=0;entryX=1;entryY=0.5;entryDx=0;entryDy=0;" edge="1" parent="1" source="s43rUlDpMTknoYBjIofl-372" target="s43rUlDpMTknoYBjIofl-385">
          <mxGeometry width="50" height="50" relative="1" as="geometry">
            <mxPoint x="1860" y="770" as="sourcePoint" />
            <mxPoint x="1740" y="500" as="targetPoint" />
          </mxGeometry>
        </mxCell>
        <mxCell id="s43rUlDpMTknoYBjIofl-466" value="" style="endArrow=classic;html=1;rounded=0;exitX=1;exitY=0.5;exitDx=0;exitDy=0;entryX=0;entryY=0.5;entryDx=0;entryDy=0;" edge="1" parent="1" source="s43rUlDpMTknoYBjIofl-337" target="s43rUlDpMTknoYBjIofl-385">
          <mxGeometry width="50" height="50" relative="1" as="geometry">
            <mxPoint x="1640" y="380" as="sourcePoint" />
            <mxPoint x="1690" y="330" as="targetPoint" />
          </mxGeometry>
        </mxCell>
        <mxCell id="s43rUlDpMTknoYBjIofl-467" value="" style="endArrow=classic;html=1;rounded=0;exitX=1;exitY=0.5;exitDx=0;exitDy=0;entryX=0;entryY=0.5;entryDx=0;entryDy=0;" edge="1" parent="1" source="s43rUlDpMTknoYBjIofl-372" target="s43rUlDpMTknoYBjIofl-421">
          <mxGeometry width="50" height="50" relative="1" as="geometry">
            <mxPoint x="1820" y="485" as="sourcePoint" />
            <mxPoint x="1710" y="485" as="targetPoint" />
          </mxGeometry>
        </mxCell>
        <mxCell id="s43rUlDpMTknoYBjIofl-468" value="" style="endArrow=classic;html=1;rounded=0;exitX=0;exitY=0.5;exitDx=0;exitDy=0;entryX=1;entryY=0.5;entryDx=0;entryDy=0;" edge="1" parent="1" source="s43rUlDpMTknoYBjIofl-395" target="s43rUlDpMTknoYBjIofl-421">
          <mxGeometry width="50" height="50" relative="1" as="geometry">
            <mxPoint x="1830" y="495" as="sourcePoint" />
            <mxPoint x="1720" y="495" as="targetPoint" />
          </mxGeometry>
        </mxCell>
        <mxCell id="s43rUlDpMTknoYBjIofl-469" value="" style="endArrow=classic;html=1;rounded=0;exitX=0.507;exitY=0.99;exitDx=0;exitDy=0;entryX=0.5;entryY=0;entryDx=0;entryDy=0;exitPerimeter=0;" edge="1" parent="1" source="s43rUlDpMTknoYBjIofl-378" target="s43rUlDpMTknoYBjIofl-407">
          <mxGeometry width="50" height="50" relative="1" as="geometry">
            <mxPoint x="1820" y="485" as="sourcePoint" />
            <mxPoint x="1710" y="485" as="targetPoint" />
          </mxGeometry>
        </mxCell>
        <mxCell id="s43rUlDpMTknoYBjIofl-470" value="" style="endArrow=classic;html=1;rounded=0;entryX=0.5;entryY=0;entryDx=0;entryDy=0;" edge="1" parent="1" target="s43rUlDpMTknoYBjIofl-349">
          <mxGeometry width="50" height="50" relative="1" as="geometry">
            <mxPoint x="1900" y="550" as="sourcePoint" />
            <mxPoint x="1720" y="495" as="targetPoint" />
          </mxGeometry>
        </mxCell>
        <mxCell id="s43rUlDpMTknoYBjIofl-471" value="" style="endArrow=classic;html=1;rounded=0;entryX=0.5;entryY=0;entryDx=0;entryDy=0;" edge="1" parent="1" target="s43rUlDpMTknoYBjIofl-446">
          <mxGeometry width="50" height="50" relative="1" as="geometry">
            <mxPoint x="1900" y="550" as="sourcePoint" />
            <mxPoint x="1790" y="705" as="targetPoint" />
          </mxGeometry>
        </mxCell>
        <mxCell id="s43rUlDpMTknoYBjIofl-472" value="" style="endArrow=classic;html=1;rounded=0;entryX=0.5;entryY=0;entryDx=0;entryDy=0;" edge="1" parent="1" target="s43rUlDpMTknoYBjIofl-433">
          <mxGeometry width="50" height="50" relative="1" as="geometry">
            <mxPoint x="1900" y="550" as="sourcePoint" />
            <mxPoint x="1800" y="715" as="targetPoint" />
          </mxGeometry>
        </mxCell>
        <mxCell id="s43rUlDpMTknoYBjIofl-473" value="" style="endArrow=classic;html=1;rounded=0;exitX=0.5;exitY=0;exitDx=0;exitDy=0;entryX=0.498;entryY=0.981;entryDx=0;entryDy=0;entryPerimeter=0;" edge="1" parent="1" source="s43rUlDpMTknoYBjIofl-323" target="s43rUlDpMTknoYBjIofl-417">
          <mxGeometry width="50" height="50" relative="1" as="geometry">
            <mxPoint x="1931" y="580" as="sourcePoint" />
            <mxPoint x="1810" y="725" as="targetPoint" />
          </mxGeometry>
        </mxCell>
        <mxCell id="s43rUlDpMTknoYBjIofl-474" value="" style="endArrow=classic;html=1;rounded=0;exitX=0.5;exitY=0;exitDx=0;exitDy=0;entryX=0.5;entryY=1;entryDx=0;entryDy=0;" edge="1" parent="1" source="s43rUlDpMTknoYBjIofl-323" target="s43rUlDpMTknoYBjIofl-349">
          <mxGeometry width="50" height="50" relative="1" as="geometry">
            <mxPoint x="1941" y="590" as="sourcePoint" />
            <mxPoint x="2020" y="880" as="targetPoint" />
          </mxGeometry>
        </mxCell>
        <mxCell id="s43rUlDpMTknoYBjIofl-475" value="" style="endArrow=classic;html=1;rounded=0;exitX=0.5;exitY=0;exitDx=0;exitDy=0;entryX=0.498;entryY=1.014;entryDx=0;entryDy=0;entryPerimeter=0;" edge="1" parent="1" source="s43rUlDpMTknoYBjIofl-323" target="s43rUlDpMTknoYBjIofl-462">
          <mxGeometry width="50" height="50" relative="1" as="geometry">
            <mxPoint x="1910" y="980" as="sourcePoint" />
            <mxPoint x="2040" y="880" as="targetPoint" />
          </mxGeometry>
        </mxCell>
        <mxCell id="s43rUlDpMTknoYBjIofl-476" value="" style="endArrow=classic;html=1;rounded=0;exitX=0.5;exitY=0;exitDx=0;exitDy=0;entryX=0.543;entryY=1.062;entryDx=0;entryDy=0;entryPerimeter=0;" edge="1" parent="1" source="s43rUlDpMTknoYBjIofl-323" target="s43rUlDpMTknoYBjIofl-440">
          <mxGeometry width="50" height="50" relative="1" as="geometry">
            <mxPoint x="1920" y="990" as="sourcePoint" />
            <mxPoint x="2050" y="890" as="targetPoint" />
          </mxGeometry>
        </mxCell>
      </root>
    </mxGraphModel>
  </diagram>
</mxfile>
